<?xml version="1.0" encoding="UTF-8" standalone="no"?>
<svg
   xmlns:dc="http://purl.org/dc/elements/1.1/"
   xmlns:cc="http://creativecommons.org/ns#"
   xmlns:rdf="http://www.w3.org/1999/02/22-rdf-syntax-ns#"
   xmlns:svg="http://www.w3.org/2000/svg"
   xmlns="http://www.w3.org/2000/svg"
   xmlns:sodipodi="http://sodipodi.sourceforge.net/DTD/sodipodi-0.dtd"
   xmlns:inkscape="http://www.inkscape.org/namespaces/inkscape"
   width="500"
   height="300"
   viewBox="0 0 132.29188 79.37475"
   version="1.1"
   id="svg48"
   sodipodi:docname="componentes.svg"
   inkscape:version="0.92.3 (2405546, 2018-03-11)">
  <metadata
     id="metadata54">
    <rdf:RDF>
      <cc:Work
         rdf:about="">
        <dc:format>image/svg+xml</dc:format>
        <dc:type
           rdf:resource="http://purl.org/dc/dcmitype/StillImage" />
        <dc:title></dc:title>
      </cc:Work>
    </rdf:RDF>
  </metadata>
  <defs
     id="defs52" />
  <sodipodi:namedview
     pagecolor="#ffffff"
     bordercolor="#666666"
     borderopacity="1"
     objecttolerance="10"
     gridtolerance="10"
     guidetolerance="10"
     inkscape:pageopacity="0"
     inkscape:pageshadow="2"
     inkscape:window-width="1920"
     inkscape:window-height="1016"
     id="namedview50"
     showgrid="false"
     inkscape:zoom="1.0775"
     inkscape:cx="381.14247"
     inkscape:cy="221.86144"
     inkscape:window-x="0"
     inkscape:window-y="27"
     inkscape:window-maximized="1"
     inkscape:current-layer="svg48" />
  <g
     id="g79"
     transform="translate(0.49110675,1.4733202)">
    <path
       style="fill:#fbf2e9;stroke-width:0.80440253"
       inkscape:connector-curvature="0"
       id="path2"
       d="m 102.02859,70.192213 c -0.30089,-0.300804 -0.11987,-0.728686 0.39019,-0.92252 l 0.53178,-0.201876 V 42.24396 h -1.02174 c -0.56155,0 -1.13677,-0.115013 -1.27676,-0.254959 -0.15286,-0.152816 -0.25584,-0.892762 -0.25584,-1.844236 v -1.588472 l -1.280788,-1.333511 a 11.335626,11.332437 0 0 1 -2.040246,-2.934049 c -0.758663,-1.594905 -0.764292,-1.600535 -1.753036,-1.747721 -3.262313,-0.48579 -6.463489,-2.554422 -8.256749,-5.33646 -1.340322,-2.079087 -2.255056,-5.801339 -1.496403,-6.091688 0.46904,-0.180161 0.731303,0.123057 0.883358,1.021448 0.599364,3.550937 2.588132,6.448793 5.48439,7.992225 1.152865,0.614476 3.045084,1.255495 3.723291,1.262733 0.193893,8.05e-4 0.266299,-0.534048 0.266299,-1.975335 0,-3.295978 0.963805,-5.884986 3.035436,-8.150668 6.227758,-6.812331 17.413748,-4.137265 20.039678,4.793564 0.21481,0.731904 0.33951,1.966488 0.33951,3.364343 v 2.208578 l 1.01128,-0.147185 c 4.50126,-0.655495 8.42087,-4.544234 8.93253,-8.865682 0.14402,-1.214477 0.55673,-1.672921 1.05714,-1.174262 0.29526,0.295979 0.3033,0.509919 0.0644,1.775067 -0.9252,4.899731 -5.18993,8.915548 -10.00013,9.413404 l -1.38216,0.143163 -0.65487,1.314208 c -0.76349,1.532976 -2.23817,3.509919 -2.97993,3.99571 -0.47628,0.312064 -0.5181,0.47453 -0.5181,2.010724 0,1.095442 -0.0933,1.74933 -0.27193,1.896515 -0.14884,0.123859 -0.7482,0.255763 -1.32987,0.291957 l -1.05874,0.06676 -0.0434,13.705091 c -0.0234,7.5378 -0.0926,13.833778 -0.15286,13.992222 -0.1416,0.369974 -1.69592,0.38043 -2.00084,0.01368 -0.2856,-0.344237 -0.0611,-0.717427 0.49398,-0.822789 0.41996,-0.07962 0.4264,-0.271046 0.4803,-13.526539 l 0.0547,-13.445307 -1.11827,-0.06434 -1.11989,-0.06435 -0.0644,-1.010992 -0.0652,-1.010991 h -2.08208 l -0.0644,1.010991 -0.0652,1.010992 -1.17057,0.106166 -1.17138,0.106971 -0.0451,13.710722 c -0.0241,7.541821 -0.0933,13.837799 -0.15286,13.992223 -0.11103,0.289544 -1.63317,0.400536 -1.89463,0.138338 z m 3.47631,-30.28954 0.107,-0.957104 h 4.0443 l 0.1062,0.957104 0.10619,0.95791 1.86246,0.06193 1.86246,0.06113 V 38.17828 l 1.47064,-1.552278 c 0.80854,-0.854155 1.71925,-2.045307 2.02497,-2.646917 2.15449,-4.252278 1.19631,-9.335387 -2.37493,-12.598389 -6.07087,-5.547184 -15.723453,-2.316353 -17.437877,5.835923 -0.738547,3.511528 0.390187,6.916086 3.216447,9.699732 l 1.18103,1.163806 v 2.903485 l 1.86246,-0.06113 1.86245,-0.06193 z m -4.84238,-7.163001 a 0.46661913,0.46648786 0 0 1 -0.26549,-0.401341 c 0,-0.160858 -0.19228,-0.396514 -0.426393,-0.521179 -0.234121,-0.125469 -0.426399,-0.375603 -0.426399,-0.556568 0,-0.381233 1.129542,-1.571582 1.490772,-1.571582 0.31617,0 1.48996,1.168633 1.48996,1.483915 0,0.230026 -1.3371,1.726004 -1.51169,1.69142 a 3.196341,3.1954418 0 0 1 -0.35076,-0.124665 z m 12.77169,-0.601608 c -0.38054,-0.404557 -0.69189,-0.841288 -0.69189,-0.969974 0,-0.308043 1.1746,-1.479892 1.48434,-1.479892 0.13193,0 0.57201,0.323325 0.97829,0.717426 0.74015,0.719036 0.82302,1.411528 0.16894,1.411528 -0.16734,0 -0.36525,0.167293 -0.44087,0.372386 -0.13034,0.353888 -0.47064,0.685254 -0.69993,0.683646 -0.0595,0 -0.41835,-0.331367 -0.79888,-0.73512 z m -6.56163,-0.630563 c -0.15769,-0.625737 0.19952,-1.180697 0.76107,-1.180697 0.51569,0 0.89784,0.518766 0.81497,1.105898 -0.0539,0.378016 -0.22607,0.505898 -0.75463,0.556568 -0.58248,0.0563 -0.70476,-0.01528 -0.82141,-0.481769 z" />
    <path
       style="fill:#e8f3f5;stroke-width:0.80440253"
       inkscape:connector-curvature="0"
       id="path4"
       d="m 102.09938,69.825457 c 0,-0.163271 0.23975,-0.357105 0.5334,-0.430295 l 0.5342,-0.134316 -0.0547,-13.455762 -0.0547,-13.454957 -1.05955,-0.06676 c -0.58246,-0.0362 -1.18102,-0.168098 -1.32986,-0.291957 -0.17699,-0.146381 -0.27193,-0.788205 -0.27193,-1.830564 V 38.556292 L 99.115451,37.222781 A 10.914865,10.911794 0 0 1 97.055896,34.225998 C 96.628693,33.310717 96.268278,32.543425 96.257009,32.520904 96.245789,32.499194 95.54099,32.335918 94.690622,32.158974 90.397727,31.2638 86.907735,27.973453 85.832905,23.805625 85.41455,22.18096 85.40088,21.38954 85.791075,21.38954 c 0.19469,0 0.384557,0.472117 0.557526,1.388203 a 11.050828,11.04772 0 0 0 4.709635,7.10831 c 1.246195,0.83244 3.573657,1.717157 4.518163,1.718766 0.437654,0 0.453745,-0.07721 0.387776,-1.915818 -0.08449,-2.385522 0.209974,-3.843698 1.161723,-5.745844 3.555962,-7.1067 12.812712,-8.718497 18.622132,-3.243698 2.54548,2.398391 3.66295,5.198927 3.55354,8.899462 l -0.0668,2.260053 1.05311,-0.14075 c 1.44733,-0.19303 3.1521,-0.819571 4.39266,-1.615818 2.34436,-1.504021 4.46104,-4.672921 4.82388,-7.222519 0.11665,-0.820375 0.26147,-1.171045 0.48271,-1.171045 0.77877,0 -0.15366,3.542895 -1.46744,5.573725 -1.86084,2.874531 -5.70402,5.172386 -8.65096,5.172386 -0.85037,0 -0.89703,0.03539 -1.17942,0.891956 -0.40467,1.224129 -1.71281,3.195443 -2.86166,4.311796 l -0.95737,0.929759 v 1.589275 c 0,1.027883 -0.095,1.668097 -0.27112,1.813674 -0.14884,0.123859 -0.7482,0.255764 -1.32987,0.291957 l -1.05874,0.06676 -0.11103,13.832169 c -0.0604,7.608578 -0.13194,13.856298 -0.15929,13.885252 -0.0274,0.02976 -0.42639,0.05388 -0.88819,0.05388 -1.06195,0 -1.31135,-0.366756 -0.45294,-0.665952 l 0.65649,-0.228418 -0.0547,-13.438067 -0.0547,-13.438873 -1.17137,-0.106166 -1.17057,-0.106166 -0.0644,-1.010991 -0.0652,-1.010992 h -2.08209 l -0.0644,1.010992 -0.0652,1.010991 -1.17057,0.106166 -1.17138,0.106166 -0.11021,13.83217 c -0.0604,7.608578 -0.13194,13.856299 -0.15929,13.885253 -0.0274,0.02976 -0.43283,0.05308 -0.90107,0.05308 -0.58568,0 -0.85117,-0.09249 -0.85117,-0.295979 z m 3.40552,-29.921979 0.107,-0.957105 h 4.0443 l 0.1062,0.957105 0.10619,0.957105 1.86246,0.06193 1.86246,0.06113 V 38.17828 l 1.47064,-1.552278 c 0.80854,-0.854155 1.71925,-2.045307 2.02497,-2.646917 2.15449,-4.252278 1.19631,-9.335387 -2.37493,-12.598389 -6.07087,-5.547184 -15.723453,-2.316353 -17.437877,5.835923 -0.738547,3.511528 0.390187,6.916086 3.216447,9.699732 l 1.18103,1.163806 v 2.903485 l 1.86246,-0.06113 1.86245,-0.06193 z m -4.84238,-7.163806 a 0.46661913,0.46648786 0 0 1 -0.26549,-0.401341 c 0,-0.160858 -0.19228,-0.396514 -0.426393,-0.521179 -0.234121,-0.125469 -0.426399,-0.375603 -0.426399,-0.556568 0,-0.381233 1.129542,-1.571582 1.490772,-1.571582 0.31617,0 1.48996,1.168633 1.48996,1.483915 0,0.230026 -1.3371,1.726004 -1.51169,1.69142 a 3.196341,3.1954418 0 0 1 -0.35076,-0.124665 z m 12.77169,-0.601608 c -0.38054,-0.404557 -0.69189,-0.841288 -0.69189,-0.969974 0,-0.308043 1.1746,-1.479892 1.48434,-1.479892 0.13193,0 0.57201,0.323325 0.97829,0.717426 0.74015,0.719036 0.82302,1.411528 0.16894,1.411528 -0.16734,0 -0.36525,0.167293 -0.44087,0.372386 -0.13034,0.353888 -0.47064,0.685254 -0.69993,0.683646 -0.0595,0 -0.41835,-0.331367 -0.79888,-0.73512 z m -6.36292,-0.641823 c -0.074,-0.19303 0.005,-0.490617 0.17619,-0.661127 0.42639,-0.426273 1.06438,-0.150402 0.98312,0.423862 -0.0805,0.565415 -0.96381,0.74638 -1.1585,0.237265 z" />
    <path
       style="fill:#fae8d6;stroke-width:0.80440253"
       inkscape:connector-curvature="0"
       id="path6"
       d="m 102.09938,69.825457 c 0,-0.163271 0.23975,-0.357105 0.53179,-0.430295 l 0.53259,-0.133512 V 42.053343 l -1.11828,-0.06434 -1.11667,-0.06434 -0.11182,-1.705094 -0.11103,-1.705093 -1.304123,-1.32386 a 10.986467,10.983376 0 0 1 -2.118281,-3.00563 l -0.81417,-1.680964 -1.641215,-0.32413 c -4.37093,-0.860589 -7.905978,-4.151741 -8.994489,-8.374261 -0.419151,-1.624664 -0.432821,-2.416085 -0.04266,-2.416085 0.19469,0 0.384557,0.472118 0.557526,1.388203 a 11.049219,11.046111 0 0 0 4.716071,7.112331 c 1.35481,0.904827 3.845586,1.797588 4.68067,1.676944 0.468233,-0.06676 0.48271,-0.13512 0.429614,-1.984986 -0.06437,-2.272117 0.295263,-3.821178 1.358028,-5.843162 1.325033,-2.520644 3.952589,-4.712332 6.648519,-5.544773 1.73131,-0.534048 4.98397,-0.575066 6.65978,-0.08284 3.03463,0.891154 5.74264,3.147186 7.06768,5.887399 1.00564,2.081501 1.26148,3.296783 1.19229,5.673458 -0.0434,1.49276 0.0121,2.033243 0.2156,2.100803 0.52455,0.175336 2.90591,-0.421448 4.28164,-1.072922 2.85603,-1.351205 5.47874,-4.824128 5.90513,-7.820909 0.11746,-0.818767 0.26227,-1.170242 0.48271,-1.170242 0.42881,0 0.32744,1.293298 -0.23653,3.019302 -1.35158,4.136461 -5.28646,7.281233 -9.64774,7.709918 l -1.26068,0.123862 -0.81739,1.621447 c -0.45375,0.899195 -1.38618,2.241555 -2.09175,3.012063 l -1.27435,1.389812 v 1.467829 c 0,0.857373 -0.10619,1.57319 -0.25503,1.722788 -0.14078,0.140751 -0.71602,0.255765 -1.27757,0.255765 h -1.02173 v 13.707507 c 0,7.540214 -0.058,13.86032 -0.12872,14.045306 -0.0869,0.225202 -0.39743,0.336194 -0.94532,0.336194 -1.04184,0 -1.28079,-0.368365 -0.43202,-0.664344 l 0.65488,-0.228418 V 42.053343 l -1.11828,-0.06434 -1.11666,-0.06434 -0.0644,-1.010991 -0.0652,-1.010188 h -2.50767 l -0.0652,1.010188 -0.0644,1.010991 -1.11827,0.06434 -1.11748,0.06434 v 13.697049 c 0,7.533779 -0.058,13.849059 -0.12872,14.034046 -0.16975,0.44236 -1.78683,0.478552 -1.78683,0.04021 z m 3.24784,-28.698655 c 0.19469,-0.148793 0.37731,-0.641822 0.41271,-1.117157 l 0.0644,-0.850939 h 3.61871 l 0.0644,0.850939 c 0.0869,1.153349 0.46903,1.383377 2.30252,1.383377 1.96784,0 2.21,-0.21394 2.21,-1.95764 v -1.289276 l 1.35481,-1.435657 c 4.21486,-4.467023 4.13843,-10.926272 -0.17941,-15.214742 -2.23092,-2.215817 -4.96949,-3.22681 -8.22778,-3.038606 -2.21805,0.128686 -3.82869,0.694102 -5.62356,1.973726 -5.487608,3.915281 -6.058008,11.509381 -1.23575,16.475064 l 1.3524,1.392224 v 1.423594 c 0,0.93941 0.0909,1.458981 0.26548,1.530562 0.56558,0.227614 3.28082,0.133512 3.62033,-0.125469 z m -5.11029,-9.233242 c -0.263883,-0.284719 -0.479493,-0.569437 -0.479493,-0.632976 0,-0.06274 0.288013,-0.402145 0.638783,-0.753619 l 0.63879,-0.637801 0.63878,0.637801 c 0.69511,0.69571 0.81498,1.097051 0.32664,1.097051 -0.17136,0 -0.41433,0.191421 -0.53903,0.426273 -0.29284,0.545308 -0.62752,0.508311 -1.22447,-0.136729 z m 13.28899,-0.08848 -0.60017,-0.629759 0.65327,-0.653083 0.65327,-0.653083 0.63879,0.637802 c 0.35076,0.351474 0.63878,0.689276 0.63878,0.752011 0,0.174531 -1.06438,1.197586 -1.23413,1.186327 -0.0821,-0.0057 -0.41996,-0.293567 -0.74981,-0.640215 z m -6.45463,-0.308847 c -0.074,-0.19303 0.005,-0.490617 0.17619,-0.661127 0.42639,-0.426273 1.06438,-0.150402 0.98312,0.423862 -0.0805,0.565415 -0.96381,0.74638 -1.1585,0.237265 z" />
    <path
       style="fill:#eae7e4;stroke-width:0.80440253"
       inkscape:connector-curvature="0"
       id="path8"
       d="m 102.09938,69.825457 c 0,-0.163271 0.23975,-0.357105 0.53179,-0.430295 l 0.53259,-0.133512 V 42.053343 l -1.11828,-0.06434 -1.11667,-0.06434 -0.11182,-1.705094 -0.11103,-1.705093 -1.304123,-1.32386 c -0.905079,-0.919304 -1.555125,-1.848257 -2.12391,-3.03378 -0.764293,-1.594905 -0.876922,-1.724396 -1.670986,-1.928685 -3.711226,-0.954692 -5.913993,-2.210992 -7.485213,-4.26756 -1.404687,-1.839411 -2.412741,-4.260322 -2.412741,-5.794101 0,-0.946649 0.205152,-0.565416 0.52937,0.983646 0.868881,4.146916 4.308178,7.568363 8.517408,8.472384 0.702338,0.151207 1.332281,0.353888 1.399855,0.452815 0.06678,0.09812 0.08124,-0.768096 0.03218,-1.924665 -0.113436,-2.61394 0.175391,-4.054422 1.234937,-6.164074 1.359627,-2.706433 3.946943,-4.923858 6.758733,-5.792493 1.73132,-0.534048 4.98397,-0.575066 6.65978,-0.08284 3.03463,0.891154 5.74264,3.147186 7.06768,5.887399 0.98955,2.046916 1.25826,3.280697 1.21481,5.581769 -0.0193,1.053619 -0.0265,2.046112 -0.016,2.203752 0.0257,0.365147 1.72326,0.156033 3.39747,-0.419838 3.49803,-1.203217 6.42245,-4.598928 7.11996,-8.268095 0.13435,-0.704558 0.31778,-1.281234 0.40788,-1.281234 0.44008,0 -0.31697,2.942091 -1.17136,4.552279 -1.66535,3.135925 -5.35969,5.663806 -8.38065,5.734583 l -1.4441,0.03378 -0.90106,1.819303 c -0.55833,1.127614 -1.3894,2.351743 -2.18829,3.224396 l -1.28963,1.405898 v 1.467829 c 0,0.857372 -0.1062,1.573189 -0.25503,1.722787 -0.14079,0.140752 -0.71602,0.25496 -1.27758,0.25496 h -1.02173 v 13.708302 c 0,7.540214 -0.058,13.860319 -0.12872,14.045306 -0.0869,0.225202 -0.39743,0.336193 -0.94531,0.336193 -1.04184,0 -1.28079,-0.368364 -0.43203,-0.664343 l 0.65488,-0.228418 V 42.053343 l -1.11828,-0.06434 -1.11666,-0.06434 -0.0644,-1.010991 -0.0652,-1.010188 h -2.50768 l -0.0652,1.010188 -0.0644,1.010991 -1.11827,0.06434 -1.11748,0.06434 v 13.697049 c 0,7.533779 -0.058,13.849059 -0.12872,14.034046 -0.16975,0.44236 -1.78683,0.478552 -1.78683,0.04021 z m 3.24784,-28.698655 c 0.19469,-0.148793 0.37731,-0.641822 0.41271,-1.117157 l 0.0644,-0.850939 h 3.61871 l 0.0644,0.850939 c 0.0869,1.153349 0.46903,1.383377 2.30252,1.383377 1.96784,0 2.21,-0.21394 2.21,-1.95764 v -1.289276 l 1.35481,-1.435657 c 4.21486,-4.467023 4.13843,-10.926272 -0.17941,-15.214742 -2.23092,-2.215817 -4.96949,-3.22681 -8.22778,-3.038606 -2.21805,0.128686 -3.82869,0.694102 -5.62356,1.973726 -5.487608,3.915281 -6.058008,11.509381 -1.23575,16.475064 l 1.3524,1.392224 v 1.423594 c 0,0.93941 0.0909,1.458981 0.26548,1.530562 0.56558,0.227614 3.28082,0.133512 3.62033,-0.125469 z m -5.11029,-9.233242 c -0.263883,-0.284719 -0.479493,-0.569437 -0.479493,-0.632976 0,-0.06274 0.288013,-0.402145 0.638783,-0.753619 l 0.63879,-0.637801 0.63878,0.637801 c 0.69511,0.69571 0.81498,1.097051 0.32664,1.097051 -0.17136,0 -0.41433,0.191421 -0.53903,0.426273 -0.29284,0.545308 -0.62752,0.508311 -1.22447,-0.136729 z m 13.28899,-0.08848 -0.60017,-0.629759 0.65327,-0.653083 0.65327,-0.653083 0.63879,0.637802 c 0.35076,0.351474 0.63878,0.689276 0.63878,0.752011 0,0.174531 -1.06438,1.197586 -1.23413,1.186327 -0.0821,-0.0057 -0.41996,-0.293567 -0.74981,-0.640215 z m -6.27763,-0.573459 c 0.0403,-0.205094 0.21319,-0.372386 0.38617,-0.372386 0.17135,0 0.34513,0.167292 0.38455,0.372386 0.0499,0.261395 -0.0644,0.372386 -0.38536,0.372386 -0.3202,0 -0.43524,-0.110991 -0.38536,-0.372386 z" />
    <path
       style="fill:#d4eaed;stroke-width:0.80440253"
       inkscape:connector-curvature="0"
       id="path10"
       d="m 102.20557,42.031628 -1.27676,-0.106971 -0.11182,-1.705094 -0.11103,-1.705093 -1.279184,-1.298927 C 94.283517,31.994096 95.2972,23.516886 101.55151,19.439139 c 1.82464,-1.188741 3.564,-1.667293 6.06605,-1.667293 3.40793,0 5.91318,1.018231 8.20847,3.335388 2.17782,2.198124 3.2953,4.914209 3.29932,8.018766 0.005,3.132707 -1.01208,5.689544 -3.22209,8.100802 l -1.24539,1.35925 v 1.48311 c 0,1.031098 -0.0933,1.56193 -0.30571,1.738069 -0.32503,0.270242 -4.80939,0.376407 -5.21809,0.123861 -0.12229,-0.0756 -0.22285,-0.563002 -0.22285,-1.082574 v -0.94504 h -2.55433 v 0.964343 c 0,0.583913 -0.10462,0.997319 -0.2663,1.048794 -0.50122,0.158445 -2.60744,0.221179 -3.88502,0.115013 z m 3.14165,-0.904826 c 0.19469,-0.148793 0.37731,-0.641822 0.41271,-1.117157 l 0.0644,-0.850939 h 3.61871 l 0.0644,0.850939 c 0.0869,1.153349 0.46903,1.383377 2.30252,1.383377 1.96784,0 2.21,-0.21394 2.21,-1.95764 v -1.289276 l 1.35481,-1.435657 c 4.21486,-4.467023 4.13843,-10.926272 -0.17941,-15.214742 -2.23092,-2.215817 -4.96949,-3.22681 -8.22778,-3.038606 -2.21805,0.128686 -3.82869,0.694102 -5.62356,1.973726 -5.487608,3.915281 -6.058008,11.509381 -1.23575,16.475064 l 1.3524,1.392224 v 1.423594 c 0,0.93941 0.0909,1.458981 0.26548,1.530562 0.56558,0.227614 3.28082,0.133512 3.62033,-0.125469 z m -5.11029,-9.233242 c -0.263883,-0.284719 -0.479493,-0.569437 -0.479493,-0.632976 0,-0.06274 0.288013,-0.402145 0.638783,-0.753619 l 0.63879,-0.637801 0.63878,0.637801 c 0.69511,0.69571 0.81498,1.097051 0.32664,1.097051 -0.17136,0 -0.41433,0.191421 -0.53903,0.426273 -0.29284,0.545308 -0.62752,0.508311 -1.22447,-0.136729 z m 13.28899,-0.08848 -0.60017,-0.629759 0.65327,-0.653083 0.65327,-0.653083 0.63879,0.637802 c 0.35076,0.351474 0.63878,0.689276 0.63878,0.752011 0,0.174531 -1.06438,1.197586 -1.23413,1.186327 -0.0821,-0.0057 -0.41996,-0.293567 -0.74981,-0.640215 z m -6.27763,-0.573459 c 0.0403,-0.205094 0.21319,-0.372386 0.38617,-0.372386 0.17135,0 0.34513,0.167292 0.38455,0.372386 0.0499,0.261395 -0.0644,0.372386 -0.38536,0.372386 -0.3202,0 -0.43524,-0.110991 -0.38536,-0.372386 z m -12.492525,0.793837 c -3.274379,-0.655496 -6.436128,-3.069973 -7.934943,-6.060321 -0.560744,-1.119571 -1.111835,-3.002413 -1.111835,-3.798659 0,-0.946649 0.205152,-0.565415 0.52937,0.983646 0.872896,4.17024 4.355645,7.616622 8.570504,8.479623 0.73211,0.149599 1.330667,0.349062 1.330667,0.44236 0,0.196246 -0.205948,0.189008 -1.383763,-0.04665 z m 25.649565,-0.0949 c 2.98798,-0.64504 4.53426,-1.484719 6.47072,-3.514745 1.3701,-1.434852 2.38378,-3.397319 2.74904,-5.31957 0.13435,-0.704557 0.31778,-1.281233 0.40788,-1.281233 0.44008,0 -0.31697,2.942894 -1.17137,4.552279 -1.64362,3.096513 -5.21809,5.562465 -8.3549,5.765145 l -1.48513,0.09652 z" />
    <path
       style="fill:#fae2cb;stroke-width:0.80440253"
       inkscape:connector-curvature="0"
       id="path12"
       d="m 102.15248,41.878008 c -0.61465,-0.04503 -1.12471,-0.148793 -1.13276,-0.230026 a 69.735425,69.715806 0 0 1 -0.0532,-1.657641 l -0.0378,-1.508847 -1.348368,-1.360053 c -0.974277,-0.983646 -1.581678,-1.85067 -2.193915,-3.133512 -0.76509,-1.602144 -0.85842,-1.982573 -0.968638,-3.941017 -0.207563,-3.716622 0.722456,-6.24933 3.229319,-8.786862 2.352412,-2.382306 4.531042,-3.275068 7.986442,-3.275068 3.37494,0 5.56724,0.871851 7.93252,3.155228 2.53664,2.448258 3.48999,5.02681 3.29288,8.909918 -0.10053,1.9874 -0.18182,2.320376 -0.96864,3.94504 -0.58085,1.2 -1.26148,2.186059 -2.09978,3.043431 l -1.23895,1.268364 -0.10621,1.702682 -0.107,1.702679 -1.38376,0.112601 c -0.76027,0.06193 -1.92922,0.0748 -2.59617,0.02815 l -1.21321,-0.08445 -0.0644,-0.986059 -0.0644,-0.986059 h -2.76673 l -0.0644,1.010993 -0.0652,1.010991 -0.99921,0.0032 c -0.55029,0.0016 -1.19068,0.03378 -1.4256,0.07078 -0.23331,0.0378 -0.92842,0.03137 -1.54307,-0.01368 z m 3.58493,-0.723056 c 0.10294,-0.160857 0.18825,-0.648257 0.18986,-1.080965 l 0.003,-0.786595 1.70316,0.01126 1.70316,0.01048 0.003,0.776139 c 0.005,1.252279 0.17137,1.358445 2.23012,1.420376 2.38861,0.07238 2.70558,-0.171313 2.6388,-2.029223 l -0.0458,-1.257104 1.36526,-1.450133 c 2.72249,-2.893834 3.70963,-6.377211 2.84638,-10.039945 -1.14804,-4.869168 -5.71126,-8.531902 -10.62846,-8.531902 -4.72894,0 -8.841625,2.88579 -10.457896,7.336728 -1.458581,4.017426 -0.526958,8.062197 2.629153,11.412866 l 1.329863,1.412333 v 1.399464 c 0,1.089811 0.0797,1.444502 0.35802,1.600535 0.55994,0.313673 3.90994,0.147989 4.13199,-0.204289 z m -5.29372,-9.431902 -0.485933,-0.512333 0.539033,-0.538873 0.53822,-0.538874 0.52294,0.522789 0.52212,0.522787 -0.53258,0.531636 c -0.29204,0.292761 -0.55109,0.530831 -0.57524,0.528417 -0.0241,-0.0024 -0.26226,-0.233243 -0.52937,-0.515549 z m 13.21176,-0.03379 -0.46984,-0.509115 0.52294,-0.522788 0.52374,-0.523592 0.53902,0.538874 0.53902,0.538873 -0.48592,0.511529 c -0.57925,0.610456 -0.57282,0.611259 -1.16896,-0.03379 z m -6.40716,-0.458446 c 0.0403,-0.204288 0.21319,-0.371581 0.38617,-0.371581 0.17135,0 0.34513,0.167293 0.38455,0.372387 0.0499,0.261394 -0.0644,0.372385 -0.38536,0.372385 -0.3202,0 -0.43524,-0.110991 -0.38536,-0.372385 z m -12.492525,0.794641 c -3.274379,-0.655495 -6.436128,-3.069972 -7.934943,-6.061124 -0.560744,-1.117962 -1.111835,-3.001608 -1.111835,-3.797854 0,-0.946649 0.205152,-0.565415 0.52937,0.983646 0.872896,4.17024 4.355645,7.61662 8.570504,8.479623 0.73211,0.149598 1.330667,0.349061 1.330667,0.442359 0,0.196247 -0.205948,0.189008 -1.383763,-0.04665 z m 25.649565,-0.0949 c 2.98798,-0.645041 4.53426,-1.484718 6.47072,-3.514745 1.3701,-1.434852 2.38378,-3.397318 2.74904,-5.31957 0.13435,-0.704557 0.31778,-1.281232 0.40788,-1.281232 0.44008,0 -0.31697,2.942894 -1.17137,4.552277 -1.64362,3.096514 -5.21809,5.562466 -8.3549,5.765147 l -1.48513,0.09652 z" />
    <path
       style="fill:#cae5e9;stroke-width:0.80440253"
       inkscape:connector-curvature="0"
       id="path14"
       d="m 102.15248,41.878008 c -0.61465,-0.04503 -1.12471,-0.148793 -1.13276,-0.230026 a 69.735425,69.715806 0 0 1 -0.0532,-1.657641 l -0.0378,-1.508847 -1.348368,-1.360053 c -0.974277,-0.983646 -1.581678,-1.85067 -2.193915,-3.133512 -0.76509,-1.602144 -0.85842,-1.982573 -0.968638,-3.941017 -0.207563,-3.716622 0.722456,-6.24933 3.229319,-8.786862 2.352412,-2.382306 4.531042,-3.275068 7.986442,-3.275068 3.37494,0 5.56724,0.871851 7.93252,3.155228 2.53664,2.448258 3.48999,5.02681 3.29288,8.909918 -0.10053,1.9874 -0.18182,2.320376 -0.96864,3.94504 -0.58085,1.2 -1.26148,2.186059 -2.09978,3.043431 l -1.23895,1.268364 -0.10621,1.702682 -0.107,1.702679 -1.38376,0.112601 c -0.76027,0.06193 -1.92922,0.0748 -2.59617,0.02815 l -1.21321,-0.08445 -0.0644,-0.986059 -0.0644,-0.986059 h -2.76673 l -0.0644,1.010993 -0.0652,1.010991 -0.99921,0.0032 c -0.55029,0.0016 -1.19068,0.03378 -1.4256,0.07078 -0.23331,0.0378 -0.92842,0.03137 -1.54307,-0.01368 z m 3.58493,-0.723056 c 0.10294,-0.160857 0.18825,-0.648257 0.18986,-1.080965 l 0.003,-0.786595 1.70316,0.01126 1.70316,0.01048 0.003,0.776139 c 0.005,1.252279 0.17137,1.358445 2.23012,1.420376 2.38861,0.07238 2.70558,-0.171313 2.6388,-2.029223 l -0.0458,-1.257104 1.36526,-1.450133 c 2.72249,-2.893834 3.70963,-6.377211 2.84638,-10.039945 -1.14804,-4.869168 -5.71126,-8.531902 -10.62846,-8.531902 -4.72894,0 -8.841625,2.88579 -10.457896,7.336728 -1.458581,4.017426 -0.526958,8.062197 2.629153,11.412866 l 1.329863,1.412333 v 1.399464 c 0,1.089811 0.0797,1.444502 0.35802,1.600535 0.55994,0.313673 3.90994,0.147989 4.13199,-0.204289 z m -5.29372,-9.431902 -0.485933,-0.512333 0.539033,-0.538873 0.53822,-0.538874 0.52294,0.522789 0.52212,0.522787 -0.53258,0.531636 c -0.29204,0.292761 -0.55109,0.530831 -0.57524,0.528417 -0.0241,-0.0024 -0.26226,-0.233243 -0.52937,-0.515549 z m 13.21176,-0.03379 -0.46984,-0.509115 0.52294,-0.522788 0.52374,-0.523592 0.53902,0.538874 0.53902,0.538873 -0.48592,0.511529 c -0.57925,0.610456 -0.57282,0.611259 -1.16896,-0.03379 z" />
    <g
       transform="matrix(0.80451574,0,0,0.80428941,-21.886949,-0.79919573)"
       id="g30">
      <path
         style="fill:#f4f3f2"
         inkscape:connector-curvature="0"
         id="path16"
         d="m 98.62,88.983 c -1.328,-0.48 -2.175,-1.444 -2.572,-2.928 -0.294,-1.101 -0.358,-1.159 -1.381,-1.234 l -1.073,-0.079 v -5.291 l 1.124,-0.082 c 1.328,-0.096 1.64,-0.844 0.352,-0.844 -1.549,0 -1.609,-0.105 -1.609,-2.797 0,-2.699 0.183,-3.024 1.703,-3.024 1.212,0 0.814,-0.754 -0.446,-0.845 l -1.124,-0.081 v -5.292 l 1.124,-0.081 c 1.328,-0.096 1.64,-0.845 0.352,-0.845 -1.549,0 -1.609,-0.104 -1.609,-2.797 0,-2.699 0.183,-3.024 1.703,-3.024 1.212,0 0.814,-0.753 -0.446,-0.844 l -1.124,-0.082 v -5.291 l 1.124,-0.082 c 1.328,-0.096 1.64,-0.845 0.352,-0.845 -1.212,0 -1.609,-0.256 -1.609,-1.042 0,-0.397 -0.06,-0.783 -0.136,-0.857 -0.355,-0.356 -3.395,0.427 -5.323,1.37 -3.695,1.809 -6.072,4.955 -6.984,9.246 -0.35,1.645 -0.521,2.013 -0.969,2.08 -0.803,0.118 -0.922,-0.549 -0.48,-2.68 1.243,-5.985 6.421,-10.793 12.411,-11.524 1.26,-0.154 1.354,-0.216 1.432,-0.958 0.099,-0.953 0.681,-1.455 1.687,-1.455 1.265,0 0.926,-0.75 -0.381,-0.845 l -1.124,-0.081 v -5.292 l 1.124,-0.081 c 1.328,-0.097 1.64,-0.845 0.352,-0.845 -1.549,0 -1.609,-0.105 -1.609,-2.797 0,-2.687 0.186,-3.024 1.669,-3.024 0.54,0 0.671,-0.161 0.808,-0.992 0.223,-1.359 1.033,-2.593 2.076,-3.162 0.78,-0.426 1.8,-0.485 9.735,-0.56 10.876,-0.103 11.371,-0.055 12.761,1.242 0.86,0.8 1.075,1.204 1.19,2.225 0.132,1.171 0.188,1.247 0.917,1.247 1.606,0 1.8,0.31 1.8,2.867 0,1.45 -0.118,2.438 -0.317,2.636 -0.175,0.175 -0.78,0.318 -1.345,0.318 -1.433,0 -1.15,0.623 0.36,0.794 l 1.17,0.132 v 5.292 l -1.17,0.132 c -1.381,0.156 -1.827,0.794 -0.554,0.794 1.23,0 1.857,0.43 1.857,1.277 0,0.687 0.11,0.755 1.918,1.178 5.818,1.363 10.304,5.968 11.342,11.643 0.29,1.588 0.278,1.845 -0.103,2.226 -0.576,0.576 -1.251,0.045 -1.251,-0.983 0,-1.28 -1.015,-4.08 -2.068,-5.703 -2.016,-3.108 -5.148,-5.188 -8.718,-5.791 -1.103,-0.187 -1.12,-0.178 -1.12,0.574 0,1.031 -0.438,1.4 -1.663,1.4 -1.433,0 -1.15,0.622 0.36,0.793 l 1.17,0.133 v 5.291 l -1.17,0.132 c -1.381,0.157 -1.827,0.794 -0.554,0.794 1.667,0 1.857,0.293 1.857,2.867 0,1.451 -0.12,2.438 -0.318,2.637 -0.175,0.174 -0.78,0.317 -1.345,0.317 -1.433,0 -1.15,0.623 0.36,0.794 l 1.17,0.132 v 5.292 l -1.17,0.132 c -1.381,0.156 -1.827,0.794 -0.554,0.794 1.667,0 1.857,0.292 1.857,2.867 0,1.45 -0.12,2.438 -0.318,2.636 -0.175,0.175 -0.78,0.318 -1.345,0.318 -1.433,0 -1.15,0.623 0.36,0.793 l 1.17,0.133 v 5.291 l -1.17,0.133 c -1.108,0.125 -1.184,0.188 -1.455,1.206 -0.344,1.295 -0.822,1.976 -1.86,2.651 -0.73,0.475 -1.424,0.512 -10.452,0.57 -7.882,0.051 -9.865,-0.007 -10.727,-0.32 z m 20.926,-2.073 0.638,-0.742 V 32.252 l -0.638,-0.742 -0.638,-0.743 -9.555,-0.075 c -10.427,-0.083 -10.965,-0.017 -11.622,1.423 -0.45,0.987 -0.427,53.251 0.023,54.24 0.624,1.37 1.093,1.425 11.54,1.359 l 9.614,-0.061 z M 99.19,49.995 c -0.617,-0.681 -0.565,-2.23 0.095,-2.827 1.26,-1.14 3.171,-0.261 3.171,1.459 0,0.61 -0.182,1.14 -0.484,1.414 -0.654,0.592 -2.229,0.566 -2.782,-0.046 z m 16.514,-0.213 c -0.627,-0.799 -0.668,-1.132 -0.247,-2.056 0.423,-0.927 1.65,-1.316 2.601,-0.823 1.842,0.952 1.175,3.576 -0.909,3.576 -0.653,0 -1.045,-0.19 -1.445,-0.697 z m -7.417,-0.481 c -0.7,-0.844 0.334,-2.171 1.158,-1.486 0.498,0.413 0.544,1.11 0.102,1.553 -0.424,0.424 -0.872,0.4 -1.26,-0.067 z M 95.843,82.097 c 0,-0.882 -0.103,-1.191 -0.397,-1.191 -0.294,0 -0.397,0.309 -0.397,1.19 0,0.882 0.103,1.191 0.397,1.191 0.294,0 0.397,-0.309 0.397,-1.19 z m 26.987,0 c 0,-1.015 -0.078,-1.191 -0.53,-1.191 -0.45,0 -0.528,0.176 -0.528,1.19 0,1.015 0.078,1.191 0.529,1.191 0.45,0 0.529,-0.176 0.529,-1.19 z M 95.843,75.614 c 0,-1 -0.097,-1.323 -0.397,-1.323 -0.3,0 -0.397,0.324 -0.397,1.323 0,1 0.097,1.323 0.397,1.323 0.3,0 0.397,-0.323 0.397,-1.323 z m 26.987,-0.02 c 0,-1.135 -0.071,-1.328 -0.463,-1.254 -0.308,0.059 -0.491,0.383 -0.548,0.97 -0.106,1.11 0.086,1.627 0.606,1.627 0.31,0 0.405,-0.313 0.405,-1.342 z M 95.843,69.132 c 0,-0.882 -0.103,-1.19 -0.397,-1.19 -0.294,0 -0.397,0.308 -0.397,1.19 0,0.882 0.103,1.19 0.397,1.19 0.294,0 0.397,-0.308 0.397,-1.19 z m 26.987,-0.02 c 0,-1.009 -0.077,-1.195 -0.463,-1.122 -0.338,0.064 -0.485,0.392 -0.544,1.21 -0.072,0.983 -0.014,1.123 0.463,1.123 0.47,0 0.544,-0.166 0.544,-1.21 z M 95.843,62.65 c 0,-1 -0.097,-1.323 -0.397,-1.323 -0.3,0 -0.397,0.323 -0.397,1.323 0,1 0.097,1.323 0.397,1.323 0.3,0 0.397,-0.324 0.397,-1.323 z m 26.987,-0.02 c 0,-1.135 -0.071,-1.329 -0.463,-1.254 -0.308,0.058 -0.491,0.382 -0.548,0.97 -0.106,1.11 0.086,1.627 0.606,1.627 0.31,0 0.405,-0.314 0.405,-1.343 z M 95.843,56.167 c 0,-0.882 -0.103,-1.19 -0.397,-1.19 -0.294,0 -0.397,0.308 -0.397,1.19 0,0.882 0.103,1.191 0.397,1.191 0.294,0 0.397,-0.309 0.397,-1.19 z m 26.987,0 c 0,-1.014 -0.078,-1.19 -0.53,-1.19 -0.45,0 -0.528,0.176 -0.528,1.19 0,1.015 0.078,1.191 0.529,1.191 0.45,0 0.529,-0.176 0.529,-1.19 z M 95.843,49.685 c 0,-1 -0.097,-1.323 -0.397,-1.323 -0.3,0 -0.397,0.324 -0.397,1.323 0,1 0.097,1.323 0.397,1.323 0.3,0 0.397,-0.323 0.397,-1.323 z m 26.987,-0.02 c 0,-1.135 -0.071,-1.328 -0.463,-1.254 -0.308,0.058 -0.491,0.383 -0.548,0.97 -0.106,1.11 0.086,1.627 0.606,1.627 0.31,0 0.405,-0.313 0.405,-1.342 z M 95.843,43.203 c 0,-0.882 -0.103,-1.19 -0.397,-1.19 -0.294,0 -0.397,0.308 -0.397,1.19 0,0.882 0.103,1.19 0.397,1.19 0.294,0 0.397,-0.308 0.397,-1.19 z m 26.987,0 c 0,-1.014 -0.078,-1.19 -0.53,-1.19 -0.45,0 -0.528,0.176 -0.528,1.19 0,1.014 0.078,1.19 0.529,1.19 0.45,0 0.529,-0.176 0.529,-1.19 z M 95.843,36.72 c 0,-0.999 -0.097,-1.322 -0.397,-1.322 -0.3,0 -0.397,0.323 -0.397,1.322 0,1 0.097,1.323 0.397,1.323 0.3,0 0.397,-0.323 0.397,-1.323 z m 26.987,-0.019 c 0,-1.135 -0.071,-1.329 -0.463,-1.255 -0.308,0.059 -0.491,0.383 -0.548,0.971 -0.106,1.11 0.086,1.626 0.606,1.626 0.31,0 0.405,-0.313 0.405,-1.342 z M 57.774,75.634 c -0.266,-0.165 -0.25,-0.245 0.07,-0.368 0.226,-0.087 0.476,-0.052 0.556,0.077 0.208,0.337 -0.225,0.539 -0.626,0.29 z m 0,-12.7 c -0.266,-0.165 -0.25,-0.245 0.07,-0.368 0.226,-0.087 0.476,-0.052 0.556,0.077 0.208,0.337 -0.225,0.539 -0.626,0.29 z m 0,-12.7 c -0.266,-0.165 -0.25,-0.245 0.07,-0.368 0.226,-0.087 0.476,-0.052 0.556,0.077 0.208,0.337 -0.225,0.539 -0.626,0.29 z m 0,-12.7 c -0.266,-0.165 -0.25,-0.245 0.07,-0.368 0.226,-0.087 0.476,-0.052 0.556,0.077 0.208,0.337 -0.225,0.539 -0.626,0.29 z M 57.478,25.873 c 0,-0.146 0.179,-0.265 0.397,-0.265 0.218,0 0.397,0.12 0.397,0.265 0,0.145 -0.179,0.264 -0.397,0.264 -0.218,0 -0.397,-0.119 -0.397,-0.264 z m 0,-12.7 c 0,-0.146 0.179,-0.265 0.397,-0.265 0.218,0 0.397,0.12 0.397,0.265 0,0.145 -0.179,0.264 -0.397,0.264 -0.218,0 -0.397,-0.119 -0.397,-0.264 z" />
      <path
         style="fill:#f8f2eb"
         inkscape:connector-curvature="0"
         id="path18"
         d="M 98.2,88.491 C 97.072,87.895 96.663,87.26 96,85.073 95.896,84.731 95.578,84.61 94.783,84.61 h -1.077 l 0.076,-2.447 0.076,-2.448 1.059,-0.132 c 0.837,-0.105 1.058,-0.243 1.058,-0.661 0,-0.42 -0.22,-0.557 -1.058,-0.662 l -1.059,-0.132 -0.077,-2.36 c -0.085,-2.605 0.012,-2.789 1.485,-2.796 0.758,-0.003 0.866,-0.085 0.793,-0.599 -0.07,-0.496 -0.274,-0.609 -1.218,-0.677 l -1.135,-0.082 0.076,-2.432 0.076,-2.431 1.059,-0.133 c 0.837,-0.104 1.058,-0.242 1.058,-0.661 0,-0.419 -0.22,-0.557 -1.058,-0.661 l -1.059,-0.133 -0.077,-2.359 c -0.085,-2.605 0.013,-2.79 1.485,-2.796 0.758,-0.004 0.866,-0.085 0.793,-0.6 -0.07,-0.495 -0.274,-0.608 -1.218,-0.677 l -1.135,-0.081 0.076,-2.432 0.076,-2.432 1.059,-0.132 c 0.837,-0.105 1.058,-0.243 1.058,-0.662 0,-0.418 -0.22,-0.556 -1.057,-0.661 -0.926,-0.116 -1.074,-0.23 -1.199,-0.926 -0.136,-0.764 -0.188,-0.79 -1.386,-0.715 -2.791,0.177 -5.797,1.71 -8.074,4.118 -1.945,2.057 -2.668,3.639 -3.611,7.908 -0.172,0.774 -0.697,0.948 -1.164,0.385 -0.204,-0.245 -0.17,-0.898 0.123,-2.315 1.266,-6.148 6.352,-10.805 12.664,-11.597 1.228,-0.154 1.33,-0.222 1.413,-0.958 0.108,-0.95 0.417,-1.182 1.582,-1.188 0.758,-0.003 0.867,-0.085 0.793,-0.599 -0.07,-0.496 -0.274,-0.609 -1.218,-0.677 l -1.134,-0.082 0.075,-2.432 0.076,-2.431 1.059,-0.133 c 0.838,-0.104 1.058,-0.242 1.058,-0.661 0,-0.42 -0.22,-0.557 -1.058,-0.662 l -1.059,-0.132 -0.077,-2.359 c -0.085,-2.6 0.015,-2.79 1.466,-2.796 0.756,-0.004 0.86,-0.09 0.86,-0.715 0,-1.112 0.963,-2.821 1.913,-3.396 0.812,-0.491 1.446,-0.528 10.316,-0.602 5.916,-0.05 9.83,0.023 10.464,0.194 1.463,0.394 2.438,1.527 2.66,3.092 0.16,1.12 0.271,1.3 0.843,1.364 1.96,0.22 1.877,0.094 1.794,2.778 l -0.076,2.44 -1.19,0.132 c -1.117,0.124 -1.228,0.23 -1.099,1.043 0.022,0.138 0.546,0.286 1.164,0.331 l 1.125,0.082 v 4.762 l -0.972,0.081 c -1.647,0.137 -2.087,1.374 -0.49,1.374 1.218,0 1.594,0.257 1.594,1.087 0,0.42 0.09,0.767 0.199,0.77 0.109,0.003 0.998,0.174 1.975,0.381 5.565,1.18 9.936,5.552 11.216,11.22 0.47,2.082 0.38,2.682 -0.4,2.682 -0.565,0 -0.687,-0.283 -0.946,-2.185 -0.094,-0.693 -0.636,-2.19 -1.205,-3.327 -1.682,-3.36 -4.463,-5.66 -8.175,-6.762 -2.202,-0.653 -2.615,-0.587 -2.713,0.434 -0.078,0.807 -0.156,0.868 -1.274,0.992 -1.116,0.124 -1.227,0.23 -1.098,1.043 0.022,0.137 0.546,0.286 1.164,0.33 l 1.125,0.082 v 4.763 l -0.972,0.08 c -1.71,0.143 -2.068,1.37 -0.402,1.379 1.435,0.007 1.536,0.2 1.45,2.796 l -0.076,2.36 -1.19,0.132 c -1.117,0.124 -1.228,0.23 -1.099,1.043 0.022,0.137 0.546,0.286 1.164,0.33 l 1.125,0.082 v 4.762 l -0.972,0.081 c -1.71,0.142 -2.068,1.37 -0.402,1.378 1.435,0.007 1.536,0.201 1.45,2.797 l -0.076,2.359 -1.19,0.132 c -1.117,0.124 -1.228,0.23 -1.099,1.043 0.022,0.137 0.546,0.286 1.164,0.33 l 1.125,0.082 v 4.762 l -0.925,0.089 c -1.21,0.114 -1.49,0.378 -1.682,1.582 -0.19,1.187 -1.278,2.33 -2.57,2.7 -0.515,0.148 -4.917,0.26 -10.192,0.26 -9.216,0 -9.295,-0.005 -10.453,-0.617 z m 21.477,-1.438 0.772,-0.864 V 32.23 l -0.772,-0.863 -0.772,-0.864 -9.348,-0.084 c -10.375,-0.092 -11.038,-0.017 -11.874,1.355 -0.502,0.823 -0.516,1.546 -0.517,27.383 0,23.56 0.046,26.627 0.413,27.338 0.778,1.504 1.14,1.55 11.713,1.483 l 9.613,-0.06 z m -3.236,-36.941 c -0.774,-0.386 -1.24,-1.604 -0.85,-2.227 0.154,-0.247 0.59,-0.625 0.97,-0.84 0.63,-0.358 0.752,-0.345 1.428,0.158 1.74,1.293 0.37,3.865 -1.548,2.909 z m 1.047,-1.505 c -0.052,-0.157 -0.208,-0.285 -0.347,-0.285 -0.138,0 -0.294,0.128 -0.346,0.285 -0.052,0.156 0.104,0.284 0.346,0.284 0.243,0 0.399,-0.128 0.347,-0.284 z M 99.42,49.855 c -0.615,-0.45 -0.652,-1.887 -0.063,-2.476 0.235,-0.235 0.797,-0.428 1.247,-0.428 1.051,0 1.676,0.634 1.676,1.7 0,0.97 -0.636,1.563 -1.676,1.563 -0.381,0 -0.914,-0.162 -1.184,-0.36 z m 1.449,-1.228 a 0.265,0.265 0 0 0 -0.265,-0.265 0.265,0.265 0 0 0 -0.265,0.265 0.265,0.265 0 0 0 0.53,0 z m 7.739,0.607 c -0.408,-0.15 -0.436,-1.04 -0.041,-1.284 0.16,-0.099 0.483,0.013 0.718,0.249 0.375,0.375 0.38,0.473 0.04,0.793 -0.212,0.2 -0.535,0.31 -0.717,0.242 z M 96.055,82.163 c -0.07,-1.21 -0.157,-1.4 -0.676,-1.474 -0.556,-0.079 -0.595,0.012 -0.595,1.39 0,1.403 0.032,1.473 0.675,1.473 0.649,0 0.673,-0.056 0.596,-1.39 z m 26.987,0 c -0.074,-1.284 -0.13,-1.39 -0.741,-1.39 -0.577,0 -0.672,0.131 -0.745,1.02 -0.114,1.382 0.076,1.759 0.883,1.759 0.658,0 0.68,-0.051 0.603,-1.39 z M 95.975,75.61 c 0,-1.276 -0.065,-1.452 -0.53,-1.452 -0.435,0 -0.543,0.204 -0.611,1.155 -0.104,1.444 0.083,1.952 0.677,1.838 0.375,-0.073 0.464,-0.368 0.464,-1.541 z m 27.067,0.066 c 0.062,-1.07 -0.015,-1.428 -0.334,-1.55 -0.636,-0.245 -1.2,0.398 -1.2,1.366 0,1.282 0.25,1.748 0.893,1.657 0.478,-0.069 0.573,-0.286 0.641,-1.473 z M 96.055,69.197 c -0.07,-1.21 -0.157,-1.4 -0.676,-1.474 -0.556,-0.079 -0.595,0.013 -0.595,1.39 0,1.403 0.032,1.473 0.675,1.473 0.649,0 0.673,-0.055 0.596,-1.389 z m 26.987,0 c -0.074,-1.284 -0.13,-1.389 -0.741,-1.389 -0.577,0 -0.672,0.13 -0.745,1.02 -0.114,1.381 0.076,1.758 0.883,1.758 0.658,0 0.68,-0.051 0.603,-1.389 z M 95.975,62.645 c 0,-1.275 -0.065,-1.452 -0.53,-1.452 -0.435,0 -0.543,0.204 -0.611,1.155 -0.104,1.445 0.083,1.952 0.677,1.838 0.375,-0.072 0.464,-0.368 0.464,-1.541 z m 27.067,0.067 c 0.062,-1.07 -0.015,-1.429 -0.334,-1.551 -0.636,-0.244 -1.2,0.399 -1.2,1.366 0,1.282 0.25,1.749 0.893,1.657 0.478,-0.068 0.573,-0.286 0.641,-1.472 z m -26.987,-6.48 c -0.07,-1.21 -0.157,-1.4 -0.676,-1.473 -0.556,-0.08 -0.595,0.012 -0.595,1.389 0,1.403 0.032,1.474 0.675,1.474 0.649,0 0.673,-0.056 0.596,-1.39 z m 26.987,0 c -0.074,-1.283 -0.13,-1.389 -0.741,-1.389 -0.577,0 -0.672,0.131 -0.745,1.02 -0.114,1.381 0.076,1.759 0.883,1.759 0.658,0 0.68,-0.052 0.603,-1.39 z M 95.975,49.68 c 0,-1.275 -0.065,-1.451 -0.53,-1.451 -0.435,0 -0.543,0.204 -0.611,1.155 -0.104,1.444 0.083,1.952 0.677,1.837 0.375,-0.072 0.464,-0.368 0.464,-1.54 z m 27.067,0.067 c 0.062,-1.07 -0.015,-1.428 -0.334,-1.55 -0.636,-0.245 -1.2,0.398 -1.2,1.366 0,1.281 0.25,1.748 0.893,1.656 0.478,-0.068 0.573,-0.285 0.641,-1.472 z m -26.987,-6.48 c -0.07,-1.21 -0.157,-1.399 -0.676,-1.473 -0.556,-0.079 -0.595,0.013 -0.595,1.39 0,1.403 0.032,1.473 0.675,1.473 0.649,0 0.673,-0.055 0.596,-1.39 z m 26.987,0 c -0.074,-1.283 -0.13,-1.388 -0.741,-1.388 -0.577,0 -0.672,0.13 -0.745,1.02 -0.114,1.38 0.076,1.758 0.883,1.758 0.658,0 0.68,-0.051 0.603,-1.39 z M 95.975,36.716 c 0,-1.275 -0.065,-1.452 -0.53,-1.452 -0.435,0 -0.543,0.204 -0.611,1.155 -0.104,1.444 0.083,1.952 0.677,1.838 0.375,-0.072 0.464,-0.368 0.464,-1.541 z m 27.067,0.067 c 0.062,-1.07 -0.015,-1.43 -0.334,-1.551 -0.636,-0.244 -1.2,0.398 -1.2,1.366 0,1.282 0.25,1.748 0.893,1.657 0.478,-0.068 0.573,-0.286 0.641,-1.472 z m -65.35,38.65 c 0.192,-0.077 0.42,-0.068 0.508,0.02 0.088,0.088 -0.068,0.15 -0.347,0.14 -0.308,-0.013 -0.371,-0.076 -0.16,-0.16 z m 0,-12.7 c 0.192,-0.077 0.42,-0.068 0.508,0.02 0.088,0.088 -0.068,0.15 -0.347,0.14 -0.308,-0.013 -0.371,-0.076 -0.16,-0.16 z m 0,-12.7 c 0.192,-0.077 0.42,-0.068 0.508,0.02 0.088,0.088 -0.068,0.15 -0.347,0.14 -0.308,-0.013 -0.371,-0.076 -0.16,-0.16 z m 0,-12.7 c 0.192,-0.077 0.42,-0.068 0.508,0.02 0.088,0.088 -0.068,0.15 -0.347,0.14 -0.308,-0.013 -0.371,-0.076 -0.16,-0.16 z M 57.478,25.872 c 0,-0.146 0.186,-0.265 0.412,-0.265 0.227,0 0.34,0.119 0.25,0.265 -0.09,0.145 -0.276,0.264 -0.413,0.264 -0.137,0 -0.25,-0.119 -0.25,-0.264 z m 0,-12.7 c 0,-0.146 0.186,-0.265 0.412,-0.265 0.227,0 0.34,0.119 0.25,0.265 -0.09,0.145 -0.276,0.264 -0.413,0.264 -0.137,0 -0.25,-0.119 -0.25,-0.264 z" />
      <path
         style="fill:#f2eeeb"
         inkscape:connector-curvature="0"
         id="path20"
         d="M 98.2,88.491 C 97.072,87.895 96.663,87.26 96,85.073 95.896,84.731 95.578,84.61 94.783,84.61 h -1.077 l 0.076,-2.447 0.076,-2.448 1.059,-0.132 c 0.837,-0.105 1.058,-0.243 1.058,-0.661 0,-0.42 -0.22,-0.557 -1.058,-0.662 l -1.059,-0.132 -0.077,-2.36 c -0.085,-2.605 0.012,-2.789 1.485,-2.796 0.758,-0.003 0.866,-0.085 0.793,-0.599 -0.07,-0.496 -0.274,-0.609 -1.218,-0.677 l -1.135,-0.082 0.076,-2.432 0.076,-2.431 1.059,-0.133 c 0.837,-0.104 1.058,-0.242 1.058,-0.661 0,-0.419 -0.22,-0.557 -1.058,-0.661 l -1.059,-0.133 -0.077,-2.359 c -0.085,-2.605 0.013,-2.79 1.485,-2.796 0.758,-0.004 0.866,-0.085 0.793,-0.6 -0.07,-0.495 -0.274,-0.608 -1.218,-0.677 l -1.135,-0.081 0.076,-2.432 0.076,-2.432 1.059,-0.132 c 0.837,-0.105 1.058,-0.243 1.058,-0.662 0,-0.418 -0.22,-0.557 -1.049,-0.661 -0.935,-0.118 -1.067,-0.227 -1.226,-1.006 -0.097,-0.48 -0.239,-0.935 -0.314,-1.01 -0.076,-0.075 -0.774,-0.02 -1.552,0.125 -5.804,1.073 -10,5.176 -11.173,10.927 -0.323,1.584 -0.753,2.213 -1.02,1.492 -0.246,-0.668 0.595,-3.81 1.526,-5.699 1.72,-3.488 5.222,-6.309 9.121,-7.346 0.8,-0.213 1.828,-0.389 2.285,-0.39 0.872,-0.004 1.153,-0.358 1.153,-1.452 0,-0.679 0.443,-0.933 1.628,-0.933 0.668,0 0.777,-0.092 0.705,-0.595 -0.07,-0.496 -0.274,-0.609 -1.218,-0.677 l -1.134,-0.082 0.075,-2.432 0.076,-2.431 1.059,-0.133 c 0.838,-0.104 1.058,-0.242 1.058,-0.661 0,-0.42 -0.22,-0.557 -1.058,-0.662 l -1.059,-0.132 -0.077,-2.359 c -0.085,-2.6 0.015,-2.79 1.466,-2.796 0.756,-0.004 0.86,-0.09 0.86,-0.715 0,-1.112 0.963,-2.821 1.913,-3.396 0.812,-0.491 1.446,-0.528 10.316,-0.602 5.916,-0.05 9.83,0.023 10.464,0.194 1.463,0.394 2.438,1.527 2.66,3.092 0.16,1.12 0.271,1.3 0.843,1.364 1.96,0.22 1.877,0.094 1.794,2.778 l -0.076,2.44 -1.19,0.132 c -1.117,0.124 -1.228,0.23 -1.099,1.043 0.022,0.138 0.546,0.286 1.164,0.331 l 1.125,0.082 v 4.762 l -0.972,0.081 c -1.647,0.137 -2.087,1.374 -0.49,1.374 1.21,0 1.594,0.258 1.594,1.071 0,0.921 0.14,1.01 2.27,1.457 3.83,0.801 7.602,3.677 9.46,7.214 1.106,2.103 1.993,5.48 1.555,5.918 -0.437,0.438 -0.849,-0.008 -0.855,-0.925 -0.008,-1.222 -1.103,-4.142 -2.094,-5.581 -2.265,-3.293 -6.13,-5.728 -9.234,-5.818 -0.911,-0.027 -0.975,0.026 -1.1,0.898 -0.127,0.876 -0.198,0.933 -1.325,1.058 -1.116,0.124 -1.227,0.23 -1.098,1.043 0.022,0.137 0.546,0.286 1.164,0.33 l 1.125,0.082 v 4.763 l -0.972,0.08 c -1.71,0.143 -2.068,1.37 -0.402,1.379 1.435,0.007 1.536,0.2 1.45,2.796 l -0.076,2.36 -1.19,0.132 c -1.117,0.124 -1.228,0.23 -1.099,1.043 0.022,0.137 0.546,0.286 1.164,0.33 l 1.125,0.082 v 4.762 l -0.972,0.081 c -1.71,0.142 -2.068,1.37 -0.402,1.378 1.435,0.007 1.536,0.201 1.45,2.797 l -0.076,2.359 -1.19,0.132 c -1.117,0.124 -1.228,0.23 -1.099,1.043 0.022,0.137 0.546,0.286 1.164,0.33 l 1.125,0.082 v 4.762 l -0.925,0.089 c -1.21,0.114 -1.49,0.378 -1.682,1.582 -0.19,1.187 -1.278,2.33 -2.57,2.7 -0.515,0.148 -4.917,0.26 -10.192,0.26 -9.216,0 -9.295,-0.005 -10.453,-0.617 z m 21.477,-1.438 0.772,-0.864 V 32.23 l -0.772,-0.863 -0.772,-0.864 -9.348,-0.084 c -10.375,-0.092 -11.038,-0.017 -11.874,1.355 -0.502,0.823 -0.516,1.546 -0.517,27.383 0,23.56 0.046,26.627 0.413,27.338 0.778,1.504 1.14,1.55 11.713,1.483 l 9.613,-0.06 z m -3.236,-36.941 c -0.774,-0.386 -1.24,-1.604 -0.85,-2.227 0.154,-0.247 0.59,-0.625 0.97,-0.84 0.63,-0.358 0.752,-0.345 1.428,0.158 1.74,1.293 0.37,3.865 -1.548,2.909 z m 1.047,-1.505 c -0.052,-0.157 -0.208,-0.285 -0.347,-0.285 -0.138,0 -0.294,0.128 -0.346,0.285 -0.052,0.156 0.104,0.284 0.346,0.284 0.243,0 0.399,-0.128 0.347,-0.284 z M 99.42,49.855 c -0.615,-0.45 -0.652,-1.887 -0.063,-2.476 0.235,-0.235 0.797,-0.428 1.247,-0.428 1.051,0 1.676,0.634 1.676,1.7 0,0.97 -0.636,1.563 -1.676,1.563 -0.381,0 -0.914,-0.162 -1.184,-0.36 z m 1.449,-1.228 a 0.265,0.265 0 0 0 -0.265,-0.265 0.265,0.265 0 0 0 -0.265,0.265 0.265,0.265 0 0 0 0.53,0 z m 7.739,0.607 c -0.408,-0.15 -0.436,-1.04 -0.041,-1.284 0.16,-0.099 0.483,0.013 0.718,0.249 0.375,0.375 0.38,0.473 0.04,0.793 -0.212,0.2 -0.535,0.31 -0.717,0.242 z M 96.055,82.163 c -0.07,-1.21 -0.157,-1.4 -0.676,-1.474 -0.556,-0.079 -0.595,0.012 -0.595,1.39 0,1.403 0.032,1.473 0.675,1.473 0.649,0 0.673,-0.056 0.596,-1.39 z m 26.987,0 c -0.074,-1.284 -0.13,-1.39 -0.741,-1.39 -0.577,0 -0.672,0.131 -0.745,1.02 -0.114,1.382 0.076,1.759 0.883,1.759 0.658,0 0.68,-0.051 0.603,-1.39 z M 95.975,75.61 c 0,-1.276 -0.065,-1.452 -0.53,-1.452 -0.435,0 -0.543,0.204 -0.611,1.155 -0.104,1.444 0.083,1.952 0.677,1.838 0.375,-0.073 0.464,-0.368 0.464,-1.541 z m 27.067,0.066 c 0.062,-1.07 -0.015,-1.428 -0.334,-1.55 -0.636,-0.245 -1.2,0.398 -1.2,1.366 0,1.282 0.25,1.748 0.893,1.657 0.478,-0.069 0.573,-0.286 0.641,-1.473 z M 96.055,69.197 c -0.07,-1.21 -0.157,-1.4 -0.676,-1.474 -0.556,-0.079 -0.595,0.013 -0.595,1.39 0,1.403 0.032,1.473 0.675,1.473 0.649,0 0.673,-0.055 0.596,-1.389 z m 26.987,0 c -0.074,-1.284 -0.13,-1.389 -0.741,-1.389 -0.577,0 -0.672,0.13 -0.745,1.02 -0.114,1.381 0.076,1.758 0.883,1.758 0.658,0 0.68,-0.051 0.603,-1.389 z M 95.975,62.645 c 0,-1.275 -0.065,-1.452 -0.53,-1.452 -0.435,0 -0.543,0.204 -0.611,1.155 -0.104,1.445 0.083,1.952 0.677,1.838 0.375,-0.072 0.464,-0.368 0.464,-1.541 z m 27.067,0.067 c 0.062,-1.07 -0.015,-1.429 -0.334,-1.551 -0.636,-0.244 -1.2,0.399 -1.2,1.366 0,1.282 0.25,1.749 0.893,1.657 0.478,-0.068 0.573,-0.286 0.641,-1.472 z m -26.987,-6.48 c -0.07,-1.21 -0.157,-1.4 -0.676,-1.473 -0.556,-0.08 -0.595,0.012 -0.595,1.389 0,1.403 0.032,1.474 0.675,1.474 0.649,0 0.673,-0.056 0.596,-1.39 z m 26.987,0 c -0.074,-1.283 -0.13,-1.389 -0.741,-1.389 -0.577,0 -0.672,0.131 -0.745,1.02 -0.114,1.381 0.076,1.759 0.883,1.759 0.658,0 0.68,-0.052 0.603,-1.39 z M 95.975,49.68 c 0,-1.275 -0.065,-1.451 -0.53,-1.451 -0.435,0 -0.543,0.204 -0.611,1.155 -0.104,1.444 0.083,1.952 0.677,1.837 0.375,-0.072 0.464,-0.368 0.464,-1.54 z m 27.067,0.067 c 0.062,-1.07 -0.015,-1.428 -0.334,-1.55 -0.636,-0.245 -1.2,0.398 -1.2,1.366 0,1.281 0.25,1.748 0.893,1.656 0.478,-0.068 0.573,-0.285 0.641,-1.472 z m -26.987,-6.48 c -0.07,-1.21 -0.157,-1.399 -0.676,-1.473 -0.556,-0.079 -0.595,0.013 -0.595,1.39 0,1.403 0.032,1.473 0.675,1.473 0.649,0 0.673,-0.055 0.596,-1.39 z m 26.987,0 c -0.074,-1.283 -0.13,-1.388 -0.741,-1.388 -0.577,0 -0.672,0.13 -0.745,1.02 -0.114,1.38 0.076,1.758 0.883,1.758 0.658,0 0.68,-0.051 0.603,-1.39 z M 95.975,36.716 c 0,-1.275 -0.065,-1.452 -0.53,-1.452 -0.435,0 -0.543,0.204 -0.611,1.155 -0.104,1.444 0.083,1.952 0.677,1.838 0.375,-0.072 0.464,-0.368 0.464,-1.541 z m 27.067,0.067 c 0.062,-1.07 -0.015,-1.43 -0.334,-1.551 -0.636,-0.244 -1.2,0.398 -1.2,1.366 0,1.282 0.25,1.748 0.893,1.657 0.478,-0.068 0.573,-0.286 0.641,-1.472 z" />
      <path
         style="fill:#fae8d6"
         inkscape:connector-curvature="0"
         id="path22"
         d="m 98.022,88.32 c -0.85,-0.523 -1.474,-1.57 -1.768,-2.967 -0.13,-0.62 -0.295,-0.723 -1.273,-0.794 L 93.858,84.478 93.78,82.402 c -0.089,-2.386 0.132,-2.819 1.442,-2.819 1.738,0 1.382,-1.491 -0.392,-1.639 l -0.972,-0.08 v -4.5 l 0.972,-0.08 c 1.905,-0.16 2.012,-1.554 0.13,-1.692 l -1.102,-0.08 -0.078,-2.075 c -0.089,-2.387 0.132,-2.82 1.442,-2.82 1.738,0 1.382,-1.49 -0.392,-1.638 L 93.858,64.898 V 60.4 l 0.972,-0.081 c 1.905,-0.159 2.012,-1.554 0.13,-1.691 l -1.102,-0.08 -0.078,-2.076 c -0.089,-2.387 0.132,-2.82 1.442,-2.82 1.738,0 1.382,-1.49 -0.39,-1.638 -0.847,-0.07 -0.99,-0.183 -1.114,-0.875 -0.135,-0.756 -0.198,-0.79 -1.324,-0.72 -1.602,0.098 -4.146,0.965 -5.672,1.933 -2.963,1.88 -5.325,5.376 -6.052,8.958 -0.331,1.632 -0.759,2.277 -1.028,1.548 -0.246,-0.665 0.593,-3.807 1.517,-5.683 2.041,-4.14 6.289,-7.124 10.972,-7.707 1.426,-0.177 1.466,-0.205 1.595,-1.107 0.12,-0.847 0.215,-0.933 1.104,-1.007 1.905,-0.158 2.012,-1.554 0.13,-1.69 l -1.102,-0.08 -0.077,-2.077 c -0.09,-2.386 0.131,-2.819 1.44,-2.819 1.74,0 1.383,-1.49 -0.39,-1.639 l -0.973,-0.08 v -4.498 l 0.925,-0.088 c 1.214,-0.115 1.589,-0.46 1.59,-1.466 0,-0.455 0.241,-1.222 0.535,-1.703 0.991,-1.626 1.292,-1.665 12.42,-1.581 l 10.02,0.075 0.707,0.662 c 0.936,0.875 1.261,1.503 1.438,2.778 0.14,1.014 0.19,1.062 1.201,1.144 0.58,0.047 1.144,0.226 1.253,0.397 0.238,0.374 0.272,3.402 0.045,3.993 -0.093,0.245 -0.47,0.419 -0.904,0.419 -1.145,0 -1.58,0.263 -1.58,0.954 0,0.557 0.12,0.633 1.005,0.633 1.416,0 1.64,0.346 1.64,2.534 0,2.12 -0.178,2.404 -1.589,2.538 -0.786,0.075 -0.925,0.186 -0.925,0.75 0,0.58 0.13,0.671 1.055,0.746 1.137,0.093 1.449,0.372 1.455,1.304 0.002,0.327 0.093,0.597 0.202,0.6 0.11,0.002 1.003,0.175 1.987,0.383 3.926,0.832 7.672,3.672 9.545,7.237 1.106,2.103 1.993,5.48 1.555,5.918 -0.437,0.438 -0.85,-0.008 -0.855,-0.925 -0.008,-1.222 -1.104,-4.142 -2.094,-5.581 -2.233,-3.246 -5.584,-5.4 -9.167,-5.89 -1.126,-0.155 -1.13,-0.152 -1.216,0.738 -0.07,0.729 -0.207,0.907 -0.747,0.967 -1.575,0.177 -1.852,0.324 -1.852,0.99 0,0.583 0.112,0.656 1.006,0.656 1.416,0 1.64,0.345 1.64,2.534 0,2.119 -0.178,2.404 -1.589,2.538 -0.786,0.074 -0.925,0.186 -0.925,0.749 0,0.589 0.124,0.67 1.124,0.742 1.33,0.097 1.46,0.384 1.338,2.97 -0.075,1.605 -0.122,1.716 -0.742,1.786 -1.575,0.176 -1.852,0.324 -1.852,0.99 0,0.583 0.112,0.655 1.006,0.655 1.416,0 1.64,0.346 1.64,2.535 0,2.119 -0.178,2.403 -1.589,2.537 -0.786,0.075 -0.925,0.187 -0.925,0.75 0,0.588 0.124,0.67 1.124,0.742 1.33,0.096 1.46,0.384 1.338,2.97 -0.075,1.604 -0.122,1.716 -0.742,1.785 -1.575,0.177 -1.852,0.324 -1.852,0.99 0,0.583 0.112,0.656 1.006,0.656 1.414,0 1.64,0.347 1.64,2.514 0,2.126 -0.233,2.513 -1.516,2.513 -0.892,0 -0.956,0.072 -1.248,1.402 -0.09,0.407 -0.567,1.181 -1.06,1.72 l -0.897,0.98 -10.274,0.07 c -9.89,0.067 -10.305,0.05 -11.136,-0.462 z m 21.695,-1.042 0.864,-0.772 V 31.915 l -0.864,-0.772 -0.864,-0.773 H 98.965 l -0.9,0.9 -0.9,0.9 v 26.869 c 0,18.614 0.088,27.061 0.285,27.494 0.674,1.48 0.845,1.502 11.551,1.51 l 9.852,0.007 z M 99.547,49.685 c -0.66,-0.66 -0.68,-1.633 -0.046,-2.208 1.013,-0.916 2.692,-0.227 2.692,1.104 0,0.72 -0.888,1.633 -1.588,1.633 -0.291,0 -0.767,-0.238 -1.058,-0.529 z m 1.47,-0.817 c 0.272,-0.44 -0.341,-0.947 -0.706,-0.582 -0.306,0.305 -0.115,0.87 0.294,0.87 0.128,0 0.313,-0.13 0.411,-0.288 z m 15.107,0.862 c -1.265,-1.398 0.528,-3.516 1.999,-2.36 0.721,0.567 0.795,1.378 0.195,2.141 -0.645,0.819 -1.568,0.911 -2.194,0.22 z m 1.547,-1.103 c 0,-0.215 -0.209,-0.43 -0.463,-0.48 -0.325,-0.062 -0.463,0.081 -0.463,0.48 0,0.398 0.138,0.541 0.463,0.479 0.254,-0.05 0.463,-0.265 0.463,-0.48 z m -9.308,0.105 c -0.225,-0.587 0.48,-0.977 0.938,-0.518 0.2,0.2 0.282,0.492 0.183,0.652 -0.266,0.43 -0.935,0.35 -1.12,-0.134 z M 96.091,83.44 c 0.449,-0.541 0.245,-2.55 -0.292,-2.888 -0.74,-0.464 -1.28,0.238 -1.28,1.666 0,0.686 0.08,1.326 0.177,1.423 0.303,0.303 1.068,0.193 1.395,-0.201 z m 26.95,0.06 c 0.449,-0.448 0.402,-2.459 -0.066,-2.847 -0.211,-0.176 -0.628,-0.242 -0.926,-0.147 -0.456,0.145 -0.542,0.393 -0.542,1.565 0,0.767 0.08,1.473 0.176,1.57 0.281,0.28 1.013,0.205 1.359,-0.141 z M 96.325,76.174 c 0.15,-1.564 -0.136,-2.191 -0.955,-2.097 -0.644,0.074 -0.727,0.203 -0.801,1.238 -0.114,1.585 0.068,1.94 0.941,1.84 0.615,-0.071 0.743,-0.225 0.815,-0.981 z m 26.988,0 c 0.149,-1.564 -0.137,-2.191 -0.955,-2.097 -0.679,0.078 -0.723,0.168 -0.798,1.622 l -0.08,1.54 0.873,-0.085 c 0.78,-0.075 0.883,-0.18 0.96,-0.98 z m -27.223,-5.7 c 0.449,-0.54 0.245,-2.55 -0.292,-2.887 -0.74,-0.464 -1.28,0.237 -1.28,1.666 0,0.685 0.08,1.325 0.177,1.422 0.303,0.304 1.068,0.193 1.395,-0.2 z m 26.95,0.06 c 0.449,-0.448 0.402,-2.459 -0.066,-2.847 -0.211,-0.175 -0.628,-0.241 -0.926,-0.147 -0.456,0.145 -0.542,0.394 -0.542,1.566 0,0.766 0.08,1.472 0.176,1.57 0.281,0.28 1.013,0.204 1.359,-0.142 z M 96.324,63.208 c 0.15,-1.563 -0.136,-2.19 -0.955,-2.096 -0.644,0.074 -0.727,0.202 -0.801,1.237 -0.114,1.585 0.068,1.94 0.941,1.84 0.615,-0.071 0.743,-0.224 0.815,-0.98 z m 26.988,0 c 0.149,-1.563 -0.137,-2.19 -0.955,-2.096 -0.679,0.078 -0.723,0.167 -0.798,1.622 l -0.08,1.539 0.873,-0.084 c 0.78,-0.075 0.883,-0.18 0.96,-0.98 z M 96.09,57.51 c 0.449,-0.541 0.245,-2.55 -0.292,-2.888 -0.74,-0.464 -1.28,0.238 -1.28,1.666 0,0.685 0.08,1.326 0.177,1.423 0.303,0.303 1.068,0.193 1.395,-0.201 z m 26.95,0.06 c 0.449,-0.449 0.402,-2.46 -0.066,-2.847 -0.211,-0.176 -0.628,-0.242 -0.926,-0.147 -0.456,0.144 -0.542,0.393 -0.542,1.565 0,0.766 0.08,1.473 0.176,1.57 0.281,0.28 1.013,0.205 1.359,-0.141 z M 96.21,50.854 c 0.232,-0.604 0.19,-2.036 -0.072,-2.449 -0.123,-0.195 -0.508,-0.314 -0.856,-0.264 -0.54,0.076 -0.643,0.256 -0.714,1.244 -0.046,0.635 -0.02,1.32 0.058,1.52 0.193,0.504 1.386,0.465 1.584,-0.051 z m 27.102,-0.61 c 0.149,-1.564 -0.137,-2.191 -0.955,-2.097 -0.679,0.078 -0.723,0.168 -0.798,1.622 l -0.08,1.54 0.873,-0.085 c 0.78,-0.075 0.883,-0.18 0.96,-0.98 z M 96.09,44.545 c 0.449,-0.54 0.245,-2.55 -0.292,-2.887 -0.74,-0.464 -1.28,0.237 -1.28,1.665 0,0.686 0.08,1.326 0.177,1.423 0.303,0.303 1.068,0.193 1.395,-0.2 z m 26.95,0.06 c 0.449,-0.448 0.402,-2.459 -0.066,-2.847 -0.211,-0.175 -0.628,-0.241 -0.926,-0.147 -0.456,0.145 -0.542,0.394 -0.542,1.565 0,0.767 0.08,1.473 0.176,1.57 0.281,0.28 1.013,0.205 1.359,-0.141 z M 96.324,37.279 c 0.15,-1.563 -0.136,-2.191 -0.955,-2.097 -0.644,0.075 -0.727,0.203 -0.801,1.238 -0.114,1.585 0.068,1.94 0.941,1.84 0.615,-0.071 0.743,-0.225 0.815,-0.98 z m 26.988,0 c 0.149,-1.563 -0.137,-2.191 -0.955,-2.097 -0.679,0.079 -0.723,0.168 -0.798,1.622 l -0.08,1.54 0.873,-0.084 c 0.78,-0.075 0.883,-0.18 0.96,-0.98 z" />
      <path
         style="fill:#eae7e4"
         inkscape:connector-curvature="0"
         id="path24"
         d="m 98.022,88.32 c -0.85,-0.523 -1.474,-1.57 -1.768,-2.967 -0.13,-0.62 -0.295,-0.723 -1.273,-0.794 L 93.858,84.478 93.78,82.402 c -0.089,-2.386 0.132,-2.819 1.442,-2.819 1.738,0 1.382,-1.491 -0.392,-1.639 l -0.972,-0.08 v -4.5 l 0.972,-0.08 c 1.905,-0.16 2.012,-1.554 0.13,-1.692 l -1.102,-0.08 -0.078,-2.075 c -0.089,-2.387 0.132,-2.82 1.442,-2.82 1.738,0 1.382,-1.49 -0.392,-1.638 L 93.858,64.898 V 60.4 l 0.972,-0.081 c 1.905,-0.159 2.012,-1.554 0.13,-1.691 l -1.102,-0.08 -0.078,-2.076 c -0.089,-2.387 0.132,-2.82 1.442,-2.82 1.738,0 1.382,-1.49 -0.39,-1.638 -0.843,-0.07 -0.99,-0.184 -1.105,-0.857 -0.073,-0.427 -0.074,-1.44 0,-2.25 l 0.131,-1.472 0.972,-0.08 c 1.905,-0.16 2.012,-1.555 0.13,-1.692 l -1.102,-0.08 -0.077,-2.076 c -0.09,-2.386 0.131,-2.819 1.44,-2.819 1.74,0 1.383,-1.49 -0.39,-1.639 l -0.973,-0.08 v -4.498 l 0.925,-0.088 c 1.214,-0.115 1.589,-0.46 1.59,-1.466 0,-0.455 0.241,-1.222 0.535,-1.703 0.991,-1.626 1.292,-1.665 12.42,-1.581 l 10.02,0.075 0.707,0.662 c 0.936,0.875 1.261,1.503 1.438,2.778 0.14,1.014 0.19,1.062 1.201,1.144 0.58,0.047 1.144,0.226 1.253,0.397 0.238,0.374 0.272,3.402 0.045,3.993 -0.093,0.245 -0.47,0.419 -0.904,0.419 -1.145,0 -1.58,0.263 -1.58,0.954 0,0.557 0.12,0.633 1.005,0.633 1.417,0 1.64,0.346 1.64,2.534 0,2.12 -0.178,2.404 -1.588,2.538 -0.787,0.075 -0.925,0.186 -0.925,0.75 0,0.588 0.123,0.67 1.123,0.742 1.33,0.096 1.46,0.384 1.338,2.97 -0.075,1.604 -0.122,1.716 -0.742,1.785 -1.575,0.177 -1.852,0.324 -1.852,0.99 0,0.583 0.112,0.656 1.006,0.656 1.417,0 1.64,0.345 1.64,2.534 0,2.119 -0.178,2.404 -1.588,2.537 -0.787,0.075 -0.925,0.187 -0.925,0.75 0,0.589 0.123,0.67 1.123,0.742 1.33,0.097 1.46,0.384 1.338,2.97 -0.075,1.605 -0.122,1.716 -0.742,1.786 -1.575,0.176 -1.852,0.324 -1.852,0.99 0,0.583 0.112,0.655 1.006,0.655 1.417,0 1.64,0.346 1.64,2.535 0,2.119 -0.178,2.403 -1.588,2.537 -0.787,0.075 -0.925,0.187 -0.925,0.75 0,0.588 0.123,0.67 1.123,0.742 1.33,0.096 1.46,0.384 1.338,2.97 -0.075,1.604 -0.122,1.716 -0.742,1.785 -1.575,0.177 -1.852,0.324 -1.852,0.99 0,0.583 0.112,0.656 1.006,0.656 1.414,0 1.64,0.347 1.64,2.514 0,2.126 -0.233,2.513 -1.516,2.513 -0.892,0 -0.956,0.072 -1.248,1.402 -0.09,0.407 -0.567,1.181 -1.06,1.72 l -0.897,0.98 -10.273,0.07 c -9.89,0.067 -10.306,0.05 -11.137,-0.462 z m 21.695,-1.042 0.864,-0.772 V 31.915 l -0.864,-0.772 -0.864,-0.773 H 98.965 l -0.9,0.9 -0.9,0.9 v 26.869 c 0,18.614 0.088,27.061 0.285,27.494 0.674,1.48 0.845,1.502 11.551,1.51 l 9.852,0.007 z M 99.547,49.685 c -0.66,-0.66 -0.68,-1.633 -0.046,-2.208 1.013,-0.916 2.692,-0.227 2.692,1.104 0,0.72 -0.888,1.633 -1.588,1.633 -0.291,0 -0.767,-0.238 -1.058,-0.529 z m 1.47,-0.817 c 0.272,-0.44 -0.341,-0.947 -0.706,-0.582 -0.306,0.305 -0.115,0.87 0.294,0.87 0.128,0 0.313,-0.13 0.411,-0.288 z m 15.107,0.862 c -1.265,-1.398 0.528,-3.516 1.999,-2.36 0.721,0.567 0.795,1.378 0.195,2.141 -0.645,0.819 -1.568,0.911 -2.194,0.22 z m 1.547,-1.103 c 0,-0.215 -0.209,-0.43 -0.463,-0.48 -0.325,-0.062 -0.463,0.081 -0.463,0.48 0,0.398 0.138,0.541 0.463,0.479 0.254,-0.05 0.463,-0.265 0.463,-0.48 z m -9.308,0.105 c -0.225,-0.587 0.48,-0.977 0.938,-0.518 0.2,0.2 0.282,0.492 0.183,0.652 -0.266,0.43 -0.935,0.35 -1.12,-0.134 z M 96.091,83.44 c 0.449,-0.541 0.245,-2.55 -0.292,-2.888 -0.74,-0.464 -1.28,0.238 -1.28,1.666 0,0.686 0.08,1.326 0.177,1.423 0.303,0.303 1.068,0.193 1.395,-0.201 z m 26.95,0.06 c 0.449,-0.448 0.402,-2.459 -0.066,-2.847 -0.211,-0.176 -0.628,-0.242 -0.926,-0.147 -0.456,0.145 -0.542,0.393 -0.542,1.565 0,0.767 0.08,1.473 0.176,1.57 0.281,0.28 1.013,0.205 1.359,-0.141 z M 96.325,76.174 c 0.15,-1.564 -0.136,-2.191 -0.955,-2.097 -0.644,0.074 -0.727,0.203 -0.801,1.238 -0.114,1.585 0.068,1.94 0.941,1.84 0.615,-0.071 0.743,-0.225 0.815,-0.981 z m 26.988,0 c 0.149,-1.564 -0.137,-2.191 -0.955,-2.097 -0.679,0.078 -0.723,0.168 -0.798,1.622 l -0.08,1.54 0.873,-0.085 c 0.78,-0.075 0.883,-0.18 0.96,-0.98 z m -27.223,-5.7 c 0.449,-0.54 0.245,-2.55 -0.292,-2.887 -0.74,-0.464 -1.28,0.237 -1.28,1.666 0,0.685 0.08,1.325 0.177,1.422 0.303,0.304 1.068,0.193 1.395,-0.2 z m 26.95,0.06 c 0.449,-0.448 0.402,-2.459 -0.066,-2.847 -0.211,-0.175 -0.628,-0.241 -0.926,-0.147 -0.456,0.145 -0.542,0.394 -0.542,1.566 0,0.766 0.08,1.472 0.176,1.57 0.281,0.28 1.013,0.204 1.359,-0.142 z M 96.324,63.208 c 0.15,-1.563 -0.136,-2.19 -0.955,-2.096 -0.644,0.074 -0.727,0.202 -0.801,1.237 -0.114,1.585 0.068,1.94 0.941,1.84 0.615,-0.071 0.743,-0.224 0.815,-0.98 z m 26.988,0 c 0.149,-1.563 -0.137,-2.19 -0.955,-2.096 -0.679,0.078 -0.723,0.167 -0.798,1.622 l -0.08,1.539 0.873,-0.084 c 0.78,-0.075 0.883,-0.18 0.96,-0.98 z M 96.09,57.51 c 0.449,-0.541 0.245,-2.55 -0.292,-2.888 -0.74,-0.464 -1.28,0.238 -1.28,1.666 0,0.685 0.08,1.326 0.177,1.423 0.303,0.303 1.068,0.193 1.395,-0.201 z m 26.95,0.06 c 0.449,-0.449 0.402,-2.46 -0.066,-2.847 -0.211,-0.176 -0.628,-0.242 -0.926,-0.147 -0.456,0.144 -0.542,0.393 -0.542,1.565 0,0.766 0.08,1.473 0.176,1.57 0.281,0.28 1.013,0.205 1.359,-0.141 z M 96.21,50.854 c 0.232,-0.604 0.19,-2.036 -0.072,-2.449 -0.123,-0.195 -0.508,-0.314 -0.856,-0.264 -0.54,0.076 -0.643,0.256 -0.714,1.244 -0.046,0.635 -0.02,1.32 0.058,1.52 0.193,0.504 1.386,0.465 1.584,-0.051 z m 27.102,-0.61 c 0.149,-1.564 -0.137,-2.191 -0.955,-2.097 -0.679,0.078 -0.723,0.168 -0.798,1.622 l -0.08,1.54 0.873,-0.085 c 0.78,-0.075 0.883,-0.18 0.96,-0.98 z M 96.09,44.545 c 0.449,-0.54 0.245,-2.55 -0.292,-2.887 -0.74,-0.464 -1.28,0.237 -1.28,1.665 0,0.686 0.08,1.326 0.177,1.423 0.303,0.303 1.068,0.193 1.395,-0.2 z m 26.95,0.06 c 0.449,-0.448 0.402,-2.459 -0.066,-2.847 -0.211,-0.175 -0.628,-0.241 -0.926,-0.147 -0.456,0.145 -0.542,0.394 -0.542,1.565 0,0.767 0.08,1.473 0.176,1.57 0.281,0.28 1.013,0.205 1.359,-0.141 z M 96.324,37.279 c 0.15,-1.563 -0.136,-2.191 -0.955,-2.097 -0.644,0.075 -0.727,0.203 -0.801,1.238 -0.114,1.585 0.068,1.94 0.941,1.84 0.615,-0.071 0.743,-0.225 0.815,-0.98 z m 26.988,0 c 0.149,-1.563 -0.137,-2.191 -0.955,-2.097 -0.679,0.079 -0.723,0.168 -0.798,1.622 l -0.08,1.54 0.873,-0.084 c 0.78,-0.075 0.883,-0.18 0.96,-0.98 z" />
      <path
         style="fill:#e5e1de"
         inkscape:connector-curvature="0"
         id="path26"
         d="m 98.025,88.053 c -0.473,-0.289 -0.863,-0.556 -0.867,-0.595 a 46.496,46.496 0 0 0 -0.489,-1.525 c -0.473,-1.43 -0.5,-1.457 -1.59,-1.537 l -1.11,-0.082 0.077,-2.167 0.077,-2.167 1.058,-0.132 c 0.97,-0.122 1.058,-0.199 1.058,-0.926 0,-0.728 -0.088,-0.805 -1.058,-0.927 l -1.058,-0.132 -0.077,-2.183 -0.077,-2.182 0.87,-0.004 c 1.21,-0.006 1.59,-0.318 1.488,-1.216 -0.08,-0.696 -0.19,-0.772 -1.223,-0.847 l -1.134,-0.082 0.076,-2.167 0.077,-2.167 1.058,-0.132 c 0.97,-0.121 1.058,-0.198 1.058,-0.926 0,-0.728 -0.088,-0.805 -1.058,-0.926 l -1.058,-0.132 -0.077,-2.183 -0.077,-2.183 0.87,-0.004 c 1.21,-0.006 1.59,-0.317 1.488,-1.215 -0.08,-0.696 -0.19,-0.773 -1.223,-0.847 l -1.134,-0.082 0.076,-2.167 0.077,-2.167 1.058,-0.133 c 0.97,-0.12 1.058,-0.198 1.058,-0.926 0,-0.726 -0.089,-0.805 -1.048,-0.926 -0.947,-0.12 -1.068,-0.222 -1.247,-1.058 -0.11,-0.51 -0.128,-1.492 -0.042,-2.183 0.149,-1.196 0.196,-1.257 0.982,-1.26 1.164,-0.006 1.544,-0.327 1.443,-1.216 -0.08,-0.696 -0.19,-0.772 -1.223,-0.847 l -1.134,-0.082 0.076,-2.167 0.077,-2.167 1.058,-0.132 c 0.97,-0.121 1.058,-0.199 1.058,-0.926 0,-0.728 -0.088,-0.805 -1.058,-0.926 l -1.058,-0.133 -0.077,-2.182 -0.077,-2.183 0.87,-0.004 c 1.181,-0.006 1.424,-0.218 1.65,-1.442 0.277,-1.51 0.838,-2.456 1.726,-2.915 0.654,-0.338 2.363,-0.402 10.847,-0.402 h 10.072 l 0.938,0.86 c 0.725,0.664 0.973,1.132 1.09,2.05 0.2,1.563 0.467,1.853 1.711,1.853 h 1.037 l -0.077,2.183 -0.077,2.182 -1.19,0.133 c -1.118,0.124 -1.191,0.181 -1.191,0.926 0,0.745 0.073,0.802 1.19,0.926 l 1.191,0.132 v 4.234 l -1.031,0.133 c -2.01,0.258 -1.985,1.913 0.032,2.064 1.033,0.077 1.067,0.11 1.207,1.19 0.08,0.611 0.063,1.588 -0.035,2.17 -0.174,1.024 -0.218,1.062 -1.367,1.19 -1.113,0.124 -1.187,0.182 -1.187,0.926 0,0.745 0.073,0.802 1.19,0.926 l 1.191,0.133 v 4.232 l -1.031,0.132 c -2.041,0.262 -1.98,1.915 0.076,2.067 l 1.108,0.081 -0.076,2.168 -0.077,2.167 -1.19,0.132 c -1.118,0.124 -1.191,0.181 -1.191,0.926 0,0.745 0.073,0.802 1.19,0.926 l 1.191,0.132 v 4.234 l -1.031,0.132 c -2.041,0.262 -1.98,1.914 0.076,2.066 l 1.108,0.082 -0.076,2.167 -0.077,2.167 -1.19,0.133 c -1.118,0.124 -1.191,0.18 -1.191,0.926 0,0.744 0.073,0.801 1.19,0.926 l 1.191,0.132 v 4.233 l -0.925,0.088 c -1.214,0.115 -1.49,0.378 -1.686,1.608 -0.116,0.72 -0.442,1.27 -1.1,1.847 l -0.938,0.823 -10.11,-10e-4 C 99.383,88.577 98.843,88.551 98.025,88.053 Z m 21.639,-0.4 c 1.353,-1.208 1.314,-0.354 1.314,-28.443 0,-28.863 0.077,-27.523 -1.638,-28.568 -0.835,-0.51 -1.314,-0.534 -10.36,-0.535 -10.403,-10e-4 -10.728,0.043 -11.628,1.565 -0.417,0.707 -0.45,2.77 -0.442,27.579 0.007,21.3 0.08,26.94 0.349,27.426 0.186,0.336 0.688,0.843 1.115,1.128 0.74,0.492 1.234,0.513 10.736,0.447 9.534,-0.067 9.986,-0.093 10.554,-0.6 z M 99.6,49.633 c -0.175,-0.175 -0.318,-0.628 -0.318,-1.006 0,-0.379 0.143,-0.831 0.318,-1.006 0.174,-0.174 0.627,-0.317 1.005,-0.317 0.378,0 0.83,0.143 1.005,0.317 0.175,0.175 0.318,0.627 0.318,1.006 0,0.378 -0.143,0.83 -0.318,1.005 -0.174,0.175 -0.627,0.318 -1.005,0.318 -0.378,0 -0.83,-0.143 -1.005,-0.318 z m 1.545,-0.623 c 0.281,-0.338 0.264,-0.486 -0.1,-0.85 -0.41,-0.41 -0.47,-0.41 -0.88,0 -0.364,0.364 -0.381,0.512 -0.1,0.85 0.187,0.226 0.43,0.41 0.54,0.41 0.11,0 0.353,-0.184 0.54,-0.41 z m 14.953,0.352 c -0.52,-0.743 -0.52,-1.12 0.004,-1.642 0.924,-0.924 2.495,-0.293 2.495,1.003 0,1.168 -1.805,1.63 -2.499,0.639 z m 1.573,-0.757 c 0,-0.462 -0.147,-0.64 -0.526,-0.64 -0.62,0 -0.883,0.89 -0.36,1.221 0.547,0.347 0.886,0.124 0.886,-0.581 z m -9.02,0.187 c -0.224,-0.584 0.074,-0.883 0.478,-0.478 0.239,0.238 0.24,0.386 0.004,0.622 -0.235,0.235 -0.35,0.2 -0.482,-0.144 z M 96.055,83.854 c 0.237,-0.15 0.32,-0.71 0.265,-1.782 -0.078,-1.505 -0.109,-1.566 -0.846,-1.65 -0.938,-0.107 -1.21,0.278 -1.215,1.722 -0.006,1.522 0.833,2.32 1.796,1.71 z m 26.988,0 c 0.236,-0.15 0.32,-0.71 0.264,-1.782 l -0.08,-1.563 h -1.852 l -0.08,1.41 c -0.108,1.87 0.606,2.66 1.748,1.935 z m -26.804,-8.24 c 0,-1.594 -0.044,-1.726 -0.61,-1.806 -0.956,-0.136 -1.374,0.408 -1.374,1.786 0,1.416 0.372,1.928 1.321,1.818 0.632,-0.074 0.663,-0.159 0.663,-1.798 z m 26.988,0 c 0,-1.594 -0.045,-1.726 -0.61,-1.806 -0.987,-0.14 -1.374,0.403 -1.374,1.927 0,1.62 0.114,1.782 1.18,1.678 l 0.804,-0.079 z M 96.055,70.89 c 0.237,-0.15 0.32,-0.71 0.265,-1.782 -0.078,-1.505 -0.109,-1.566 -0.846,-1.65 -0.938,-0.107 -1.21,0.278 -1.215,1.722 -0.006,1.523 0.833,2.321 1.796,1.71 z m 26.988,0 c 0.236,-0.15 0.32,-0.71 0.264,-1.782 l -0.08,-1.563 h -1.852 l -0.08,1.411 c -0.108,1.87 0.606,2.659 1.748,1.934 z M 96.239,62.65 c 0,-1.594 -0.044,-1.725 -0.61,-1.806 -0.956,-0.135 -1.374,0.408 -1.374,1.786 0,1.416 0.372,1.929 1.321,1.818 0.632,-0.074 0.663,-0.159 0.663,-1.797 z m 27.13,0.477 c 0.186,-1.608 -0.085,-2.328 -0.874,-2.328 -0.938,0 -1.252,0.5 -1.252,1.993 0,1.598 0.116,1.761 1.18,1.657 0.746,-0.073 0.814,-0.168 0.947,-1.322 z M 96.055,57.926 c 0.237,-0.15 0.32,-0.71 0.265,-1.782 -0.078,-1.505 -0.109,-1.566 -0.846,-1.65 -0.938,-0.108 -1.21,0.277 -1.215,1.722 -0.006,1.522 0.833,2.32 1.796,1.71 z m 26.988,0 c 0.236,-0.15 0.32,-0.71 0.264,-1.782 l -0.08,-1.563 h -1.852 l -0.08,1.41 c -0.108,1.87 0.606,2.66 1.748,1.935 z m -26.804,-8.24 c 0,-1.594 -0.044,-1.726 -0.61,-1.806 -0.956,-0.136 -1.374,0.408 -1.374,1.786 0,1.416 0.372,1.928 1.321,1.817 0.632,-0.073 0.663,-0.158 0.663,-1.797 z m 26.988,0 c 0,-1.594 -0.045,-1.726 -0.61,-1.806 -0.987,-0.14 -1.374,0.402 -1.374,1.927 0,1.62 0.114,1.782 1.18,1.678 l 0.804,-0.08 z M 96.055,44.96 c 0.237,-0.15 0.32,-0.71 0.265,-1.782 -0.078,-1.505 -0.109,-1.566 -0.846,-1.65 -0.938,-0.107 -1.21,0.278 -1.215,1.722 -0.006,1.523 0.833,2.321 1.796,1.71 z m 26.988,0 c 0.236,-0.15 0.32,-0.71 0.264,-1.782 l -0.08,-1.563 h -1.852 l -0.08,1.41 c -0.108,1.87 0.606,2.66 1.748,1.935 z M 96.239,36.72 c 0,-1.594 -0.044,-1.726 -0.61,-1.806 -0.956,-0.135 -1.374,0.408 -1.374,1.786 0,1.416 0.372,1.929 1.321,1.818 0.632,-0.074 0.663,-0.159 0.663,-1.798 z m 26.988,0 c 0,-1.594 -0.045,-1.726 -0.61,-1.806 -0.987,-0.14 -1.374,0.403 -1.374,1.927 0,1.62 0.114,1.782 1.18,1.678 l 0.804,-0.079 z" />
      <path
         style="fill:#e2dedb"
         inkscape:connector-curvature="0"
         id="path28"
         d="m 96.25,84.364 c -0.083,-0.136 -0.03,-0.321 0.117,-0.413 0.148,-0.091 0.27,0.02 0.27,0.247 0,0.464 -0.16,0.533 -0.386,0.166 z m 24.86,-0.283 c 0.09,-0.146 0.216,-0.265 0.28,-0.265 0.065,0 0.117,0.12 0.117,0.265 0,0.145 -0.126,0.264 -0.28,0.264 -0.154,0 -0.207,-0.119 -0.117,-0.264 z M 96.24,80.112 c -0.09,-0.145 -0.038,-0.264 0.116,-0.264 0.154,0 0.28,0.119 0.28,0.264 0,0.146 -0.052,0.265 -0.116,0.265 -0.065,0 -0.19,-0.12 -0.28,-0.265 z m 24.87,0 c -0.09,-0.145 -0.037,-0.264 0.117,-0.264 0.154,0 0.28,0.119 0.28,0.264 0,0.146 -0.052,0.265 -0.117,0.265 -0.064,0 -0.19,-0.12 -0.28,-0.265 z m 0,-2.381 c -0.09,-0.146 -0.037,-0.265 0.117,-0.265 0.154,0 0.28,0.12 0.28,0.265 0,0.145 -0.052,0.264 -0.117,0.264 -0.064,0 -0.19,-0.119 -0.28,-0.264 z m -24.86,-3.95 c -0.083,-0.136 -0.03,-0.322 0.117,-0.413 0.148,-0.091 0.27,0.02 0.27,0.246 0,0.465 -0.16,0.533 -0.386,0.166 z m 24.86,-0.283 c 0.09,-0.146 0.216,-0.265 0.28,-0.265 0.065,0 0.117,0.12 0.117,0.265 0,0.145 -0.126,0.264 -0.28,0.264 -0.154,0 -0.207,-0.119 -0.117,-0.264 z M 96.25,71.399 c -0.083,-0.135 -0.03,-0.32 0.117,-0.412 0.148,-0.092 0.27,0.02 0.27,0.246 0,0.465 -0.16,0.533 -0.386,0.166 z m 24.86,-0.283 c 0.09,-0.145 0.216,-0.264 0.28,-0.264 0.065,0 0.117,0.119 0.117,0.264 0,0.146 -0.126,0.265 -0.28,0.265 -0.154,0 -0.207,-0.12 -0.117,-0.265 z m 0,-3.968 c -0.09,-0.146 -0.037,-0.265 0.117,-0.265 0.154,0 0.28,0.12 0.28,0.265 0,0.145 -0.052,0.264 -0.117,0.264 -0.064,0 -0.19,-0.119 -0.28,-0.264 z m 0,-2.382 c -0.09,-0.145 -0.037,-0.264 0.117,-0.264 0.154,0 0.28,0.119 0.28,0.264 0,0.146 -0.052,0.265 -0.117,0.265 -0.064,0 -0.19,-0.12 -0.28,-0.265 z m -24.86,-3.95 c -0.083,-0.136 -0.03,-0.321 0.117,-0.413 0.148,-0.091 0.27,0.02 0.27,0.247 0,0.464 -0.16,0.533 -0.386,0.166 z m 24.86,-0.283 c 0.09,-0.146 0.216,-0.265 0.28,-0.265 0.065,0 0.117,0.12 0.117,0.265 0,0.146 -0.126,0.265 -0.28,0.265 -0.154,0 -0.207,-0.12 -0.117,-0.265 z M 96.25,58.435 c -0.083,-0.136 -0.03,-0.321 0.117,-0.413 0.148,-0.091 0.27,0.02 0.27,0.246 0,0.465 -0.16,0.534 -0.386,0.167 z m 24.86,-0.283 c 0.09,-0.146 0.216,-0.265 0.28,-0.265 0.065,0 0.117,0.12 0.117,0.265 0,0.145 -0.126,0.264 -0.28,0.264 -0.154,0 -0.207,-0.119 -0.117,-0.264 z m 0,-3.969 c -0.09,-0.146 -0.037,-0.265 0.117,-0.265 0.154,0 0.28,0.12 0.28,0.265 0,0.146 -0.052,0.265 -0.117,0.265 -0.064,0 -0.19,-0.12 -0.28,-0.265 z m 0,-2.381 c -0.09,-0.146 -0.037,-0.265 0.117,-0.265 0.154,0 0.28,0.12 0.28,0.265 0,0.145 -0.052,0.264 -0.117,0.264 -0.064,0 -0.19,-0.119 -0.28,-0.264 z m 2.514,-2.117 c 0,-0.145 0.126,-0.265 0.28,-0.265 0.154,0 0.207,0.12 0.117,0.265 -0.09,0.146 -0.216,0.265 -0.28,0.265 -0.065,0 -0.117,-0.12 -0.117,-0.265 z M 99.736,49.521 c -0.104,-0.104 -0.19,-0.37 -0.19,-0.592 0,-0.325 0.069,-0.31 0.349,0.073 0.473,0.647 1.35,0.438 1.46,-0.348 0.14,-0.98 -0.686,-1.376 -1.393,-0.67 -0.228,0.229 -0.415,0.293 -0.415,0.142 0,-0.517 1.014,-0.864 1.603,-0.55 0.408,0.22 0.524,0.503 0.463,1.134 -0.07,0.723 -0.196,0.854 -0.885,0.921 -0.442,0.044 -0.888,-0.006 -0.992,-0.11 z m 16.482,-0.23 c -0.38,-0.458 -0.145,-1.723 0.32,-1.723 0.237,0 0.236,0.077 -0.005,0.318 -0.46,0.46 -0.39,1.202 0.145,1.513 0.255,0.149 0.33,0.274 0.165,0.278 -0.164,0.004 -0.445,-0.169 -0.625,-0.385 z m 1.386,0.108 c 0.535,-0.311 0.607,-1.053 0.146,-1.513 -0.241,-0.241 -0.242,-0.318 -0.005,-0.318 0.465,0 0.7,1.265 0.32,1.724 -0.18,0.216 -0.461,0.39 -0.625,0.385 -0.164,-0.004 -0.09,-0.13 0.165,-0.278 z m -9.061,-0.772 c 0,-0.146 0.178,-0.265 0.396,-0.265 0.219,0 0.397,0.12 0.397,0.265 0,0.145 -0.178,0.264 -0.397,0.264 -0.218,0 -0.396,-0.119 -0.396,-0.264 z M 96.25,47.85 c -0.084,-0.135 -0.032,-0.32 0.116,-0.412 0.148,-0.092 0.27,0.02 0.27,0.246 0,0.465 -0.16,0.533 -0.386,0.166 z m 24.86,-0.283 c 0.09,-0.145 0.215,-0.264 0.28,-0.264 0.064,0 0.116,0.119 0.116,0.264 0,0.146 -0.126,0.265 -0.28,0.265 -0.154,0 -0.207,-0.12 -0.117,-0.265 z M 96.25,45.47 c -0.084,-0.135 -0.032,-0.321 0.116,-0.412 0.148,-0.092 0.27,0.019 0.27,0.246 0,0.465 -0.16,0.533 -0.386,0.166 z m 24.86,-0.283 c 0.09,-0.145 0.215,-0.264 0.28,-0.264 0.064,0 0.116,0.119 0.116,0.264 0,0.146 -0.126,0.265 -0.28,0.265 -0.154,0 -0.207,-0.12 -0.117,-0.265 z m 0,-3.969 c -0.09,-0.145 -0.038,-0.264 0.116,-0.264 0.154,0 0.28,0.119 0.28,0.264 0,0.146 -0.052,0.265 -0.117,0.265 -0.064,0 -0.19,-0.12 -0.28,-0.265 z m 0,-2.38 c -0.09,-0.146 -0.038,-0.265 0.116,-0.265 0.154,0 0.28,0.119 0.28,0.264 0,0.146 -0.052,0.265 -0.117,0.265 -0.064,0 -0.19,-0.12 -0.28,-0.265 z M 96.25,34.887 c -0.084,-0.136 -0.032,-0.321 0.116,-0.413 0.148,-0.091 0.27,0.02 0.27,0.246 0,0.465 -0.16,0.534 -0.386,0.167 z m 24.86,-0.283 c 0.09,-0.146 0.215,-0.265 0.28,-0.265 0.064,0 0.116,0.12 0.116,0.265 0,0.145 -0.126,0.264 -0.28,0.264 -0.154,0 -0.207,-0.119 -0.117,-0.264 z" />
    </g>
    <g
       transform="matrix(0.80451574,0,0,0.80428941,-21.886949,-0.79919573)"
       id="g46">
      <path
         style="fill:#faf5e8"
         inkscape:connector-curvature="0"
         id="path32"
         d="m 46.86,91.962 c -1.084,-0.113 -1.223,-1.014 -0.197,-1.271 l 0.663,-0.167 -0.068,-19.88 -0.067,-19.881 -3.687,-0.074 c -2.166,-0.044 -3.83,-0.193 -4.035,-0.363 -0.24,-0.2 -0.348,-1.015 -0.348,-2.62 0,-2.61 0.28,-3.16 1.606,-3.16 h 0.775 v -5.732 l -2.088,-0.448 c -3.044,-0.654 -5.123,-1.79 -7.369,-4.022 -1.422,-1.415 -2.16,-2.42 -2.865,-3.904 -1.078,-2.27 -1.728,-5.288 -1.243,-5.773 0.59,-0.59 1.03,-0.012 1.362,1.792 0.488,2.651 1.66,4.888 3.594,6.86 1.974,2.014 4.806,3.5 7.126,3.739 l 1.483,0.153 v -3.728 c 0,-4.422 0.275,-5.933 1.511,-8.308 1.507,-2.894 4.225,-5.072 7.342,-5.884 5.517,-1.437 10.953,1.123 13.554,6.384 l 1.009,2.039 0.087,4.728 c 0.069,3.689 0.168,4.758 0.45,4.867 0.198,0.076 1.051,-0.061 1.896,-0.305 5.024,-1.45 8.733,-5.468 9.618,-10.418 0.336,-1.883 0.75,-2.427 1.321,-1.74 0.756,0.912 -0.634,5.29 -2.52,7.931 a 14.561,14.561 0 0 1 -8.87,5.756 l -1.718,0.347 v 5.511 l 0.817,0.167 c 0.45,0.092 0.955,0.253 1.124,0.357 0.35,0.217 0.431,4.847 0.094,5.378 -0.144,0.226 -1.43,0.345 -4.295,0.396 l -4.09,0.074 -0.06,17.17 c -0.034,9.444 -0.115,17.225 -0.181,17.29 -0.239,0.24 -2.067,0.114 -2.34,-0.159 -0.335,-0.335 0.194,-1.096 0.761,-1.096 0.306,0 0.365,-2.688 0.365,-16.675 V 50.617 l -4.3,0.073 -4.299,0.073 -0.068,20.43 c -0.063,19.134 -0.097,20.445 -0.529,20.645 -0.254,0.118 -0.848,0.173 -1.321,0.124 z M 65.79,47.654 65.87,46.133 H 40.708 v 1.41 c 0,0.777 0.08,1.492 0.18,1.59 0.098,0.1 5.723,0.149 12.5,0.111 L 65.711,49.175 Z M 63.727,37.437 c 0,-3.909 -0.12,-7.74 -0.267,-8.513 -1.06,-5.588 -6.039,-9.182 -11.656,-8.414 -3.227,0.442 -6.408,2.86 -7.873,5.986 l -0.71,1.513 -0.08,8.268 -0.08,8.268 h 20.666 z m -18.256,1.345 c -1.379,-0.44 -1.795,-2.243 -0.744,-3.222 0.774,-0.722 1.685,-0.681 2.476,0.11 1.055,1.055 0.76,2.518 -0.602,2.986 -0.403,0.138 -0.912,0.195 -1.13,0.126 z m 14.816,0.02 c -1.968,-0.725 -1.597,-3.782 0.46,-3.782 1.237,0 2.223,1.552 1.757,2.766 -0.135,0.354 -1.463,1.255 -1.74,1.182 a 10.936,10.936 0 0 1 -0.477,-0.167 z m -7.673,-1.136 c -0.512,-0.512 -0.53,-0.625 -0.186,-1.144 0.463,-0.698 1.131,-0.867 1.667,-0.422 0.533,0.442 0.37,1.286 -0.337,1.753 -0.519,0.343 -0.632,0.325 -1.144,-0.187 z M 4.016,-0.434 c 0,-0.946 0.048,-1.333 0.107,-0.86 a 8.42,8.42 0 0 1 0,1.72 C 4.063,0.899 4.016,0.512 4.016,-0.434 Z M 16.71,-0.7 c 0,-0.8 0.05,-1.127 0.11,-0.727 0.061,0.4 0.061,1.055 0,1.455 -0.06,0.4 -0.11,0.073 -0.11,-0.728 z m 11.298,0.044 c 0,-0.751 0.105,-1.367 0.232,-1.367 0.212,0 0.09,2.368 -0.135,2.624 -0.053,0.06 -0.097,-0.505 -0.097,-1.257 z m 12.7,0 c 0,-0.751 0.105,-1.367 0.232,-1.367 0.212,0 0.09,2.368 -0.135,2.624 -0.053,0.06 -0.097,-0.505 -0.097,-1.257 z m 12.7,0 c 0,-0.751 0.105,-1.367 0.232,-1.367 0.212,0 0.09,2.368 -0.135,2.624 -0.053,0.06 -0.097,-0.505 -0.097,-1.257 z M 66.188,-0.7 c 0,-0.8 0.05,-1.127 0.11,-0.727 0.06,0.4 0.06,1.055 0,1.455 -0.06,0.4 -0.11,0.073 -0.11,-0.728 z" />
      <path
         style="fill:#f0eeec"
         inkscape:connector-curvature="0"
         id="path34"
         d="m 46,91.396 c 0,-0.354 0.227,-0.596 0.661,-0.705 l 0.662,-0.166 v -40.16 h -3.808 c -4.395,0 -4.13,0.18 -4.13,-2.78 0,-2.197 0.335,-2.775 1.607,-2.775 h 0.775 v -3.167 c 0,-2.563 -0.07,-3.14 -0.36,-3.028 -0.609,0.233 -3.911,-0.647 -5.726,-1.527 -2.483,-1.203 -5.267,-4.05 -6.5,-6.648 -1.079,-2.27 -1.729,-5.288 -1.244,-5.773 0.59,-0.59 1.03,-0.012 1.362,1.792 0.491,2.67 1.697,4.979 3.59,6.875 2.226,2.228 4.482,3.33 8.018,3.912 l 0.86,0.142 v -3.661 c 0,-2.014 0.121,-4.303 0.27,-5.086 1.738,-9.165 13.176,-12.664 19.508,-5.968 2.625,2.776 3.233,4.758 3.237,10.561 l 0.003,4.167 h 0.614 c 0.337,0 1.26,-0.19 2.05,-0.422 4.898,-1.438 8.313,-5.075 9.45,-10.063 0.395,-1.73 0.562,-2.082 0.993,-2.082 0.455,0 0.513,0.167 0.465,1.351 -0.12,2.973 -2.437,7.18 -5.165,9.373 -1.836,1.477 -4.218,2.581 -6.46,2.995 l -1.814,0.335 v 5.789 l 0.84,0.082 c 1.268,0.123 1.439,0.518 1.353,3.133 l -0.077,2.342 -4.167,0.072 -4.167,0.073 v 34.94 l -1.257,-0.08 c -1.39,-0.089 -1.727,-0.668 -0.661,-1.135 l 0.595,-0.262 V 67.37 50.697 c 0,-0.11 -1.963,-0.231 -4.364,-0.271 l -4.364,-0.073 -0.068,20.71 -0.068,20.71 -1.256,0.08 C 46.142,91.925 46,91.873 46,91.396 Z M 66.054,47.65 66.133,45.862 53.354,45.931 40.576,46 40.495,47.424 c -0.045,0.783 -0.018,1.588 0.059,1.788 0.116,0.305 2.235,0.354 12.78,0.297 l 12.642,-0.07 z M 63.938,37.533 C 64.026,29.573 63.854,28.041 62.61,25.696 58.556,18.056 47.527,18.36 43.806,26.215 l -0.849,1.793 -0.08,8.403 -0.08,8.404 10.531,-0.07 10.531,-0.069 z m -18.61,1.183 c -1.4,-0.517 -1.578,-2.325 -0.32,-3.259 0.895,-0.666 1.965,-0.392 2.552,0.654 0.773,1.377 -0.75,3.154 -2.232,2.605 z m 14.818,0.006 c -1.402,-0.531 -1.58,-2.33 -0.322,-3.265 0.901,-0.67 1.966,-0.391 2.563,0.672 0.78,1.39 -0.747,3.158 -2.241,2.593 z m -7.2,-0.983 c -0.467,-0.167 -0.413,-1.382 0.069,-1.567 0.466,-0.18 1.187,0.34 1.187,0.854 0,0.428 -0.795,0.879 -1.257,0.713 z M 4.015,-0.434 c 0,-0.946 0.048,-1.333 0.107,-0.86 a 8.42,8.42 0 0 1 0,1.72 C 4.062,0.899 4.015,0.512 4.015,-0.434 Z m 23.992,-1.323 a 0.265,0.265 0 0 1 0.53,0 0.265,0.265 0 0 1 -0.53,0 z m 12.7,0 a 0.265,0.265 0 0 1 0.53,0 0.265,0.265 0 0 1 -0.53,0 z m 12.7,0 a 0.265,0.265 0 0 1 0.53,0 0.265,0.265 0 0 1 -0.53,0 z" />
      <path
         style="fill:#faf1da"
         inkscape:connector-curvature="0"
         id="path36"
         d="m 46.264,91.397 c 0,-0.151 0.299,-0.35 0.664,-0.442 L 47.591,90.789 47.523,70.644 47.455,50.498 43.63,50.424 c -2.654,-0.05 -3.889,-0.172 -4.031,-0.396 -0.113,-0.178 -0.207,-1.238 -0.21,-2.355 -0.004,-2.292 0.316,-2.863 1.603,-2.863 h 0.775 v -6.326 l -0.993,-0.159 c -5.047,-0.804 -9.101,-3.561 -11.115,-7.558 -0.97,-1.925 -1.807,-5.013 -1.544,-5.698 0.268,-0.697 0.58,-0.146 0.913,1.617 1.054,5.561 6.225,10.385 11.548,10.77 l 1.058,0.078 0.158,-4.63 c 0.172,-5.078 0.477,-6.344 2.125,-8.832 3.852,-5.815 12.782,-6.524 17.628,-1.399 2.626,2.777 3.233,4.757 3.237,10.57 0.004,4.787 -0.046,4.696 2.267,4.178 5.02,-1.123 9.256,-5.606 10.226,-10.822 0.293,-1.574 0.523,-1.933 0.874,-1.365 0.3,0.487 -0.43,3.27 -1.39,5.288 -1.835,3.862 -5.853,6.942 -10.083,7.729 -1.948,0.362 -1.946,0.356 -1.836,3.913 l 0.078,2.513 0.84,0.082 c 1.268,0.123 1.439,0.518 1.353,3.133 l -0.077,2.342 -4.233,0.132 -4.233,0.132 -0.068,17.264 -0.069,17.264 h -0.924 c -0.995,0 -1.263,-0.49 -0.393,-0.717 0.526,-0.138 0.53,-0.312 0.463,-16.975 L 57.509,50.498 h -8.996 l -0.132,20.505 -0.132,20.506 -0.992,0.082 c -0.564,0.046 -0.993,-0.037 -0.993,-0.194 z M 66.054,47.651 66.133,45.863 53.354,45.932 40.576,46 40.495,47.424 c -0.045,0.783 -0.018,1.588 0.059,1.788 0.116,0.305 2.235,0.354 12.78,0.297 l 12.642,-0.07 z M 63.938,37.534 c 0.088,-7.96 -0.084,-9.492 -1.328,-11.837 -4.054,-7.64 -15.083,-7.336 -18.804,0.519 l -0.849,1.793 -0.08,8.403 -0.08,8.404 10.531,-0.07 10.531,-0.069 z m -19.11,0.51 c -1.136,-1.137 0.146,-3.191 1.583,-2.536 0.36,0.164 0.79,0.593 0.953,0.953 0.655,1.437 -1.4,2.72 -2.536,1.583 z m 1.569,-1.175 c 0,-0.568 -0.769,-0.486 -0.88,0.093 -0.069,0.354 0.04,0.462 0.393,0.394 0.268,-0.052 0.487,-0.271 0.487,-0.487 z m 13.248,1.175 c -1.137,-1.137 0.146,-3.191 1.583,-2.536 0.36,0.164 0.789,0.593 0.953,0.953 0.655,1.437 -1.4,2.72 -2.536,1.583 z m 1.568,-1.175 c 0,-0.568 -0.768,-0.486 -0.88,0.093 -0.068,0.354 0.04,0.462 0.393,0.394 0.268,-0.052 0.487,-0.271 0.487,-0.487 z m -8.268,0.871 c -0.466,-0.167 -0.412,-1.382 0.07,-1.567 0.466,-0.18 1.187,0.34 1.187,0.855 0,0.427 -0.795,0.878 -1.257,0.712 z M 4.015,-0.434 c 0,-0.946 0.049,-1.333 0.108,-0.86 a 8.42,8.42 0 0 1 0,1.72 C 4.063,0.899 4.016,0.512 4.016,-0.434 Z" />
      <path
         style="fill:#f9eed1"
         inkscape:connector-curvature="0"
         id="path38"
         d="m 46.264,91.397 c 0,-0.151 0.298,-0.35 0.662,-0.441 L 47.587,90.79 V 50.366 l -3.638,-0.004 c -2,-0.002 -3.791,-0.102 -3.98,-0.22 -0.247,-0.158 -0.32,-0.868 -0.264,-2.577 l 0.077,-2.358 0.924,-0.088 c 0.508,-0.048 1.012,-0.227 1.12,-0.397 0.298,-0.467 0.246,-5.941 -0.057,-6.129 -0.145,-0.089 -1.008,-0.277 -1.919,-0.417 -3.995,-0.614 -8.37,-3.794 -10.19,-7.41 -0.97,-1.924 -1.808,-5.012 -1.545,-5.697 0.268,-0.697 0.58,-0.146 0.913,1.617 0.847,4.468 4.337,8.572 8.574,10.082 1.547,0.551 3.55,0.914 4.03,0.73 0.333,-0.128 0.4,-0.85 0.4,-4.33 0,-3.416 0.094,-4.484 0.522,-5.86 1.52,-4.889 5.758,-7.956 10.955,-7.927 5.44,0.03 9.972,3.92 10.991,9.43 0.157,0.85 0.285,3.189 0.285,5.2 v 3.655 h 0.766 c 1.307,0 4.094,-1.004 5.738,-2.066 3.002,-1.94 5.321,-5.428 5.986,-9 0.293,-1.575 0.523,-1.934 0.874,-1.366 0.3,0.487 -0.43,3.27 -1.39,5.288 -1.863,3.922 -5.95,7.013 -10.243,7.749 l -1.746,0.299 0.074,3.186 0.074,3.186 0.926,0.132 0.926,0.133 0.077,2.358 c 0.056,1.71 -0.017,2.42 -0.265,2.576 -0.188,0.12 -2.098,0.219 -4.244,0.22 l -3.903,0.005 v 34.66 h -0.926 c -0.993,0 -1.267,-0.489 -0.4,-0.716 0.516,-0.135 0.526,-0.43 0.595,-17.04 l 0.07,-16.904 h -9.39 l -0.067,20.571 -0.068,20.572 -0.992,0.082 c -0.564,0.047 -0.993,-0.037 -0.993,-0.194 z M 66.32,47.744 c 0.056,-1.177 -0.025,-1.762 -0.264,-1.914 -0.583,-0.37 -25.187,-0.282 -25.56,0.09 -0.333,0.334 -0.446,3.17 -0.138,3.478 0.098,0.099 5.962,0.148 13.03,0.11 L 66.241,49.44 Z M 63.93,37.02 c 0.058,-6.615 0,-8.165 -0.353,-9.393 -0.858,-2.988 -2.883,-5.295 -5.903,-6.726 -1.605,-0.76 -1.975,-0.83 -4.398,-0.824 -2.427,0.005 -2.789,0.074 -4.374,0.845 -1.932,0.94 -3.835,2.67 -4.86,4.42 -1.314,2.241 -1.482,3.579 -1.482,11.806 0,4.165 0.081,7.654 0.18,7.753 0.098,0.098 4.89,0.148 10.65,0.11 l 10.47,-0.07 z m -19.102,1.024 c -1.136,-1.137 0.146,-3.191 1.583,-2.536 0.36,0.164 0.79,0.593 0.953,0.953 0.655,1.437 -1.4,2.72 -2.536,1.583 z m 1.569,-1.175 c 0,-0.568 -0.769,-0.486 -0.88,0.093 -0.069,0.354 0.04,0.462 0.393,0.394 0.268,-0.052 0.487,-0.271 0.487,-0.487 z m 13.248,1.175 c -1.137,-1.137 0.146,-3.191 1.583,-2.536 0.36,0.164 0.789,0.593 0.953,0.953 0.655,1.437 -1.4,2.72 -2.536,1.583 z m 1.568,-1.175 c 0,-0.568 -0.768,-0.486 -0.88,0.093 -0.068,0.354 0.04,0.462 0.393,0.394 0.268,-0.052 0.487,-0.271 0.487,-0.487 z m -8.49,0.432 c -0.215,-0.558 0.086,-0.958 0.72,-0.958 0.399,0 0.51,0.147 0.447,0.593 -0.099,0.691 -0.941,0.955 -1.167,0.365 z M 4.016,-0.434 c 0,-0.946 0.048,-1.333 0.107,-0.86 a 8.42,8.42 0 0 1 0,1.72 C 4.063,0.899 4.016,0.512 4.016,-0.434 Z" />
      <path
         style="fill:#eae7e4"
         inkscape:connector-curvature="0"
         id="path40"
         d="m 46.264,91.397 c 0,-0.151 0.298,-0.35 0.662,-0.441 L 47.587,90.79 V 50.1 h -3.792 c -2.086,0 -3.842,-0.049 -3.903,-0.109 -0.06,-0.06 -0.071,-1.131 -0.024,-2.381 l 0.085,-2.272 h 0.722 c 0.397,0 0.864,-0.143 1.039,-0.318 0.369,-0.369 0.459,-6.945 0.091,-6.718 -0.564,0.349 -3.765,-0.457 -5.833,-1.468 -3.885,-1.9 -6.556,-5.25 -7.6,-9.539 -0.411,-1.684 -0.339,-2.969 0.137,-2.44 0.12,0.133 0.354,0.957 0.52,1.83 1.068,5.639 6.113,10.29 11.738,10.823 l 1.25,0.119 0.081,-3.62 c 0.045,-1.99 0.108,-0.442 0.14,3.44 0.05,6.012 0.12,7.12 0.473,7.475 0.364,0.363 1.683,0.416 10.469,0.416 6.424,0 10.237,-0.1 10.564,-0.274 0.488,-0.261 0.512,-0.627 0.506,-7.871 -0.004,-4.179 -0.127,-8.12 -0.274,-8.758 -0.424,-1.836 -1.6,-3.992 -2.92,-5.347 -2.376,-2.441 -6.366,-3.798 -9.385,-3.192 -4.79,0.962 -7.996,4.185 -9.123,9.17 -0.225,0.999 -0.232,0.979 -0.123,-0.351 0.159,-1.94 1.17,-4.007 2.81,-5.74 5.967,-6.31 16.688,-3.602 18.88,4.768 0.33,1.259 0.419,3.164 0.43,9.194 0.015,8.348 0.025,8.4 1.592,8.4 h 0.786 L 66.846,47.653 66.77,49.968 62.669,50.1 58.568,50.233 58.5,67.63 58.431,85.026 h -0.924 c -0.994,0 -1.264,-0.49 -0.395,-0.717 0.523,-0.136 0.53,-0.36 0.53,-16.908 V 50.432 c 0,-0.11 -2.054,-0.198 -4.565,-0.198 h -4.564 l -0.132,20.637 -0.132,20.638 -0.992,0.082 c -0.564,0.046 -0.993,-0.037 -0.993,-0.194 z M 66.222,49.421 c 0.532,-0.533 0.572,-3.093 0.054,-3.523 -0.26,-0.216 -3.93,-0.28 -13.163,-0.231 l -12.802,0.069 -0.079,1.828 c -0.055,1.284 0.023,1.893 0.265,2.047 0.189,0.12 5.96,0.22 12.826,0.222 10.999,0.003 12.532,-0.046 12.899,-0.412 z M 44.828,38.044 c -1.136,-1.137 0.146,-3.191 1.583,-2.536 0.36,0.164 0.79,0.593 0.953,0.953 0.655,1.437 -1.4,2.72 -2.536,1.583 z m 1.569,-1.175 c 0,-0.568 -0.769,-0.486 -0.88,0.093 -0.069,0.354 0.04,0.462 0.393,0.394 0.268,-0.052 0.487,-0.271 0.487,-0.487 z m 13.248,1.175 c -1.137,-1.137 0.146,-3.191 1.583,-2.536 0.36,0.164 0.789,0.593 0.953,0.953 0.655,1.437 -1.4,2.72 -2.536,1.583 z m 1.568,-1.175 c 0,-0.568 -0.768,-0.486 -0.88,0.093 -0.068,0.354 0.04,0.462 0.393,0.394 0.268,-0.052 0.487,-0.271 0.487,-0.487 z m 3.837,1.254 c 0,-0.202 0.65,-0.46 1.63,-0.646 5.199,-0.988 9.595,-5.501 10.595,-10.878 0.293,-1.574 0.523,-1.933 0.874,-1.365 0.3,0.487 -0.43,3.27 -1.39,5.288 -1.712,3.604 -5.273,6.508 -9.25,7.544 -1.85,0.482 -2.46,0.496 -2.46,0.057 z M 52.914,37.311 c -0.367,-0.442 0.071,-1.085 0.6,-0.883 0.233,0.09 0.423,0.333 0.423,0.54 0,0.511 -0.691,0.743 -1.023,0.343 z M 4.016,-0.434 c 0,-0.946 0.048,-1.333 0.107,-0.86 a 8.42,8.42 0 0 1 0,1.72 C 4.063,0.899 4.016,0.512 4.016,-0.434 Z" />
      <path
         style="fill:#f9eccc"
         inkscape:connector-curvature="0"
         id="path42"
         d="m 46.67,91.391 c -0.1,-0.161 0.056,-0.28 0.368,-0.28 0.34,0 0.592,-0.219 0.683,-0.595 0.08,-0.327 0.112,-9.525 0.072,-20.439 L 47.72,50.234 43.75,50.101 c -2.182,-0.072 -3.938,-0.221 -3.902,-0.33 0.037,-0.11 0.066,-1.151 0.066,-2.316 V 45.34 h 0.741 c 1.247,0 1.376,-0.363 1.376,-3.86 V 38.257 L 40.554,38.072 C 34.936,37.371 30.313,33.403 28.694,27.895 28.463,27.105 28.285,26.093 28.3,25.646 c 0.02,-0.563 0.167,-0.244 0.482,1.04 0.592,2.413 1.281,3.903 2.628,5.682 2.15,2.84 5.668,4.913 8.843,5.21 l 1.763,0.164 0.082,-3.676 c 0.045,-2.021 0.108,-0.499 0.14,3.384 0.05,6.011 0.12,7.12 0.473,7.474 0.364,0.363 1.683,0.416 10.469,0.416 6.424,0 10.237,-0.1 10.564,-0.274 0.488,-0.261 0.512,-0.627 0.506,-7.871 -0.004,-4.179 -0.127,-8.12 -0.274,-8.758 -0.424,-1.836 -1.6,-3.992 -2.92,-5.347 -2.376,-2.441 -6.366,-3.798 -9.385,-3.192 -4.79,0.962 -7.996,4.185 -9.123,9.17 -0.225,0.999 -0.232,0.979 -0.123,-0.351 0.159,-1.94 1.17,-4.007 2.81,-5.74 5.967,-6.31 16.688,-3.602 18.88,4.768 0.33,1.259 0.419,3.164 0.43,9.194 0.015,8.348 0.025,8.4 1.592,8.4 h 0.786 l -0.077,2.316 -0.076,2.315 -4.101,0.132 -4.101,0.133 -0.069,17.04 c -0.048,12.052 -0.154,17.145 -0.363,17.397 -0.328,0.396 -1.288,0.486 -1.288,0.122 0,-0.129 0.239,-0.297 0.53,-0.373 0.527,-0.138 0.531,-0.312 0.464,-17.163 L 57.774,50.235 53.247,50.162 c -3.574,-0.057 -4.59,0.004 -4.827,0.29 -0.217,0.262 -0.319,6.007 -0.368,20.71 l -0.068,20.348 -0.57,0.08 C 47.1,91.636 46.766,91.546 46.671,91.392 Z m 19.552,-41.97 c 0.532,-0.533 0.572,-3.093 0.054,-3.523 -0.26,-0.216 -3.93,-0.28 -13.163,-0.231 l -12.802,0.069 -0.079,1.828 c -0.055,1.284 0.023,1.893 0.265,2.047 0.189,0.12 5.96,0.22 12.826,0.222 10.999,0.003 12.532,-0.046 12.899,-0.412 z M 45.255,38.279 c -0.191,-0.077 -0.462,-0.44 -0.602,-0.809 -0.534,-1.404 1.199,-2.56 2.254,-1.505 1.093,1.093 -0.194,2.897 -1.652,2.314 z m 1.25,-0.982 c 0.238,-0.285 0.206,-0.47 -0.137,-0.813 -0.394,-0.393 -0.488,-0.399 -0.839,-0.048 -0.45,0.45 -0.261,1.23 0.298,1.23 0.205,0 0.51,-0.166 0.679,-0.369 z m 13.567,0.982 c -0.191,-0.077 -0.463,-0.44 -0.602,-0.809 -0.534,-1.404 1.198,-2.56 2.254,-1.505 1.093,1.093 -0.195,2.897 -1.652,2.314 z m 1.25,-0.982 c 0.237,-0.285 0.206,-0.47 -0.137,-0.813 -0.394,-0.393 -0.489,-0.399 -0.84,-0.048 -0.45,0.45 -0.26,1.23 0.299,1.23 0.205,0 0.51,-0.166 0.678,-0.369 z m 5.486,0.364 c 5.448,-1.408 9.483,-5.416 10.54,-10.467 0.374,-1.789 0.666,-2.461 0.666,-1.534 0,2.102 -1.815,6.127 -3.658,8.113 -2.26,2.434 -6.231,4.464 -8.606,4.4 -0.597,-0.017 -0.298,-0.161 1.058,-0.512 z m -13.894,-0.35 c -0.367,-0.442 0.071,-1.085 0.6,-0.883 0.233,0.09 0.423,0.333 0.423,0.54 0,0.511 -0.691,0.743 -1.023,0.343 z M 4.016,-0.434 c 0,-0.946 0.048,-1.333 0.107,-0.86 a 8.42,8.42 0 0 1 0,1.72 C 4.063,0.899 4.016,0.512 4.016,-0.434 Z" />
      <path
         style="fill:#e5e2de"
         inkscape:connector-curvature="0"
         id="path44"
         d="m 46.67,91.391 c -0.098,-0.16 0.049,-0.28 0.344,-0.28 0.284,0 0.589,-0.188 0.677,-0.418 0.089,-0.23 0.161,-9.398 0.161,-20.373 0,-10.975 0.09,-19.954 0.198,-19.954 0.11,0 0.14,9.257 0.067,20.571 l -0.133,20.572 -0.57,0.08 C 47.1,91.635 46.766,91.545 46.671,91.391 Z m 10.178,-6.598 c 0,-0.129 0.238,-0.296 0.529,-0.373 0.522,-0.136 0.53,-0.36 0.53,-17.096 0,-11.129 0.09,-16.958 0.264,-16.958 0.412,0 0.36,33.93 -0.053,34.343 -0.368,0.368 -1.27,0.428 -1.27,0.084 z M 45.255,38.279 c -0.191,-0.077 -0.462,-0.44 -0.602,-0.809 -0.534,-1.404 1.199,-2.56 2.254,-1.505 1.093,1.093 -0.194,2.897 -1.652,2.314 z m 1.25,-0.982 c 0.238,-0.285 0.206,-0.47 -0.137,-0.813 -0.394,-0.393 -0.488,-0.399 -0.839,-0.048 -0.45,0.45 -0.261,1.23 0.298,1.23 0.205,0 0.51,-0.166 0.679,-0.369 z m 13.567,0.982 c -0.191,-0.077 -0.463,-0.44 -0.602,-0.809 -0.534,-1.404 1.198,-2.56 2.254,-1.505 1.093,1.093 -0.195,2.897 -1.652,2.314 z m 1.25,-0.982 c 0.237,-0.285 0.206,-0.47 -0.137,-0.813 -0.394,-0.393 -0.489,-0.399 -0.84,-0.048 -0.45,0.45 -0.26,1.23 0.299,1.23 0.205,0 0.51,-0.166 0.678,-0.369 z m -21.408,0.715 c -5.218,-0.873 -9.688,-4.904 -11.22,-10.118 -0.231,-0.79 -0.409,-1.802 -0.394,-2.249 0.02,-0.563 0.167,-0.244 0.482,1.04 0.825,3.362 2.513,6.159 4.849,8.033 1.748,1.402 4.594,2.654 6.482,2.85 0.91,0.096 1.654,0.275 1.654,0.4 0,0.23 -0.65,0.246 -1.853,0.044 z m 26.894,-0.351 c 5.448,-1.408 9.483,-5.416 10.54,-10.467 0.374,-1.789 0.666,-2.461 0.666,-1.534 0,2.102 -1.815,6.127 -3.658,8.113 -2.26,2.434 -6.231,4.464 -8.606,4.4 -0.597,-0.017 -0.298,-0.161 1.058,-0.512 z M 4.016,-0.434 c 0,-0.946 0.048,-1.333 0.107,-0.86 a 8.42,8.42 0 0 1 0,1.72 C 4.063,0.899 4.016,0.512 4.016,-0.434 Z" />
    </g>
  </g>
</svg>
